<svg width="144" height="28" viewBox="0 0 144 28" fill="none" xmlns="http://www.w3.org/2000/svg">
<g clip-path="url(#clip0)">
<path d="M25.0235 27.3092H13.6129C11.8155 27.3244 10.0327 26.9887 8.36765 26.3217C6.70256 25.6546 5.18809 24.6694 3.91161 23.4228C2.63513 22.1763 1.62193 20.693 0.930496 19.0587C0.239057 17.4244 -0.116943 15.6714 -0.116943 13.9009C-0.116943 12.1304 0.239057 10.3774 0.930496 8.74316C1.62193 7.10887 2.63513 5.62563 3.91161 4.37906C5.18809 3.13248 6.70256 2.14724 8.36765 1.4802C10.0327 0.813159 11.8155 0.477532 13.6129 0.492678H25.0235L21.0204 4.43659H13.6129C11.0644 4.43659 8.62026 5.43377 6.81817 7.20877C5.01607 8.98377 4.00361 11.3912 4.00361 13.9014C4.00361 16.4117 5.01607 18.8191 6.81817 20.5941C8.62026 22.3691 11.0644 23.3663 13.6129 23.3663H21.0204L25.0235 27.3092Z" fill="#23303D"/>
<path d="M54.6519 0.492676H66.0625C69.6527 0.522928 73.0854 1.9489 75.6132 4.46015C78.1411 6.9714 79.5594 10.3646 79.5594 13.9009C79.5594 17.4373 78.1411 20.8305 75.6132 23.3417C73.0854 25.853 69.6527 27.2789 66.0625 27.3092H54.6519L58.656 23.3653H66.0634C68.612 23.3653 71.0562 22.3681 72.8583 20.5931C74.6604 18.8181 75.6728 16.4107 75.6728 13.9004C75.6728 11.3902 74.6604 8.98281 72.8583 7.2078C71.0562 5.43281 68.612 4.43562 66.0634 4.43562H58.651L54.6519 0.492676Z" fill="#23303D"/>
<path d="M39.5372 28C36.7261 28 33.9782 27.179 31.6408 25.6407C29.3035 24.1025 27.4818 21.9161 26.406 19.3581C25.3302 16.8001 25.0487 13.9853 25.597 11.2697C26.1453 8.55408 27.4989 6.0596 29.4865 4.1017C31.4742 2.14379 34.0067 0.810378 36.7637 0.270093C39.5207 -0.270192 42.3785 0.00692828 44.9756 1.06637C47.5728 2.12581 49.7926 3.91999 51.3545 6.22207C52.9164 8.52415 53.7501 11.2307 53.7503 13.9995C53.7464 17.7113 52.2477 21.27 49.5831 23.8947C46.9185 26.5194 43.3056 27.9959 39.5372 28ZM39.5372 3.94393C37.5178 3.94393 35.5438 4.53375 33.8647 5.63878C32.1857 6.74381 30.8771 8.31442 30.1043 10.152C29.3315 11.9896 29.1293 14.0117 29.5233 15.9624C29.9172 17.9132 30.8897 19.7051 32.3176 21.1115C33.7455 22.518 35.5647 23.4758 37.5453 23.8638C39.5258 24.2519 41.5787 24.0527 43.4444 23.2915C45.31 22.5304 46.9047 21.2414 48.0266 19.5876C49.1484 17.9338 49.7472 15.9895 49.7472 14.0005C49.7443 11.3342 48.6677 8.77795 46.7536 6.89259C44.8394 5.00724 42.2441 3.94679 39.5372 3.94393Z" fill="#00CDFA"/>
<path d="M90.3314 27.3092H86.3274V3.94396L90.3314 0.493652V27.3092Z" fill="#23303D"/>
<path d="M119.501 0L117.5 3.94295H109.975V27.3092H105.972V3.94295H96.4465L98.5657 0H119.501Z" fill="#23303D"/>
<path d="M144 0L141.997 3.94295H134.472V27.3092H130.469V3.94295H120.942L123.063 0H144Z" fill="#23303D"/>
</g>
<defs>
<clipPath id="clip0">
<rect width="144" height="28" fill="white"/>
</clipPath>
</defs>
</svg>
