<svg width="105" height="20" viewBox="0 0 105 20" fill="none" xmlns="http://www.w3.org/2000/svg">
<g clip-path="url(#clip0)">
<path d="M29.854 20C24.254 20 19.6985 15.5069 19.6985 9.98363C19.6985 4.46038 24.254 -0.0327148 29.854 -0.0327148C35.4539 -0.0327148 40.0094 4.46038 40.0094 9.98363C40.0094 15.5069 35.4529 20 29.854 20ZM29.854 2.78894C25.8321 2.78894 22.5593 6.01691 22.5593 9.98363C22.5593 13.9504 25.8321 17.1783 29.854 17.1783C33.8758 17.1783 37.1486 13.9504 37.1486 9.98363C37.1486 6.01691 33.8758 2.78894 29.854 2.78894Z" fill="#F28F3E"/>
<path d="M65.8327 19.5065H62.9719V2.789L65.8327 0.320312V19.5065Z" fill="#23303D"/>
<path d="M79.8677 0.320312H77.0068V19.5065H79.8677V0.320312Z" fill="#23303D"/>
<path d="M85.244 2.78894H70.2012L71.7148 -0.0327148H86.6744L85.244 2.78894Z" fill="#23303D"/>
<path d="M16.7409 -0.0327148V2.78894H8.19897L9.71262 -0.0327148H16.7409Z" fill="#23303D"/>
<path d="M97.3718 0.320312H94.511V19.5065H97.3718V0.320312Z" fill="#23303D"/>
<path d="M102.748 2.78894H87.7053L89.22 -0.0327148H104.179L102.748 2.78894Z" fill="#23303D"/>
<path d="M9.09473 19.6798C4.87837 19.6798 1.44849 16.2969 1.44849 12.1383H4.25731C4.25731 14.7691 6.42739 16.9095 9.09473 16.9095C11.7621 16.9095 13.9322 14.7691 13.9322 12.1383V1.77515H16.741V12.1383C16.741 16.2969 13.3111 19.6798 9.09473 19.6798Z" fill="#23303D"/>
<path d="M55.8752 9.80215C56.8874 8.84484 57.5188 7.49763 57.5188 6.0078C57.5188 3.10919 55.1282 0.750295 52.1883 0.750295H45.4014V0.749268H42.5925V19.5261H44.8292V19.5281H53.0206C55.948 19.5281 58.3324 17.1723 58.3511 14.2696V14.2347C58.3386 12.3724 57.3534 10.7359 55.8752 9.80215ZM45.4014 3.52064H52.1883C53.5792 3.52064 54.71 4.63596 54.71 6.0078C54.71 7.37964 53.5792 8.49598 52.1883 8.49598H45.4014V3.52064ZM53.0206 16.7578H45.4014V11.7476H53.0206C54.4052 11.7476 55.5329 12.869 55.5423 14.2521C55.5329 15.6353 54.4052 16.7578 53.0206 16.7578Z" fill="#23303D"/>
</g>
<defs>
<clipPath id="clip0">
<rect width="104.286" height="20" fill="white"/>
</clipPath>
</defs>
</svg>
