<svg width="144" height="28" viewBox="0 0 144 28" fill="none" xmlns="http://www.w3.org/2000/svg">
<path d="M40.2177 28.0458C32.3777 28.0458 26 21.7554 26 14.0229C26 6.29033 32.3777 0 40.2177 0C48.0576 0 54.4353 6.29033 54.4353 14.0229C54.4353 21.7554 48.0561 28.0458 40.2177 28.0458ZM40.2177 3.95031C34.5871 3.95031 30.0052 8.46947 30.0052 14.0229C30.0052 19.5763 34.5871 24.0955 40.2177 24.0955C45.8482 24.0955 50.4301 19.5763 50.4301 14.0229C50.4301 8.46947 45.8482 3.95031 40.2177 3.95031Z" fill="#FFCD1D"/>
<path d="M54.4353 14.0229C54.4353 6.29039 48.0576 6.04776e-05 40.2177 5.97922e-05C32.3792 5.91069e-05 26 6.29039 26 14.0229L30.0052 14.0229C30.0052 8.46953 34.5871 3.95037 40.2177 3.95037C45.8482 3.95037 50.4301 8.46953 50.4301 14.0229L54.4353 14.0229Z" fill="#338AF3"/>
<path d="M90.1663 27.3089H86.1611V3.90441L90.1663 0.448242V27.3089Z" fill="#23303D"/>
<path d="M109.814 0.448242H105.809V27.3089H109.814V0.448242Z" fill="#23303D"/>
<path d="M117.341 3.90441H96.2812L98.4004 -0.0458984H119.344L117.341 3.90441Z" fill="#23303D"/>
<path d="M21.4392 -0.0458984V3.90441H9.48047L11.5996 -0.0458984H21.4392Z" fill="#23303D"/>
<path d="M134.321 0.448242H130.315V27.3089H134.321V0.448242Z" fill="#23303D"/>
<path d="M141.849 3.90441H120.789L122.91 -0.0458984H143.852L141.849 3.90441Z" fill="#23303D"/>
<path d="M10.7321 27.5519C4.82918 27.5519 0.0273438 22.8158 0.0273438 16.9938H3.9597C3.9597 20.6769 6.9978 23.6734 10.7321 23.6734C14.4664 23.6734 17.5045 20.6769 17.5045 16.9938V2.48535H21.4368V16.9938C21.4368 22.8158 16.635 27.5519 10.7321 27.5519Z" fill="#23303D"/>
<path d="M76.2246 13.7229C77.6417 12.3826 78.5257 10.4965 78.5257 8.41077C78.5257 4.35273 75.1789 1.05027 71.063 1.05027H61.5613V1.04883H57.6289V27.3364H60.7602V27.3392H72.2281C76.3265 27.3392 79.6647 24.0411 79.6909 19.9773V19.9284C79.6734 17.3212 78.2942 15.0301 76.2246 13.7229ZM61.5613 4.92875H71.063C73.0103 4.92875 74.5934 6.4902 74.5934 8.41077C74.5934 10.3313 73.0103 11.8942 71.063 11.8942H61.5613V4.92875ZM72.2281 23.4607H61.5613V16.4464H72.2281C74.1667 16.4464 75.7454 18.0165 75.7585 19.9529C75.7454 21.8892 74.1667 23.4607 72.2281 23.4607Z" fill="#23303D"/>
</svg>
