<svg width="31" height="28" viewBox="0 0 31 28" fill="none" xmlns="http://www.w3.org/2000/svg">
<mask id="mask0_2472_932" style="mask-type:alpha" maskUnits="userSpaceOnUse" x="0" y="0" width="31" height="28">
<path d="M27.5946 3.29859C26.8958 2.56987 26.0661 1.9918 25.1528 1.5974C24.2396 1.203 23.2608 1 22.2723 1C21.2837 1 20.3049 1.203 19.3917 1.5974C18.4784 1.9918 17.6487 2.56987 16.9499 3.29859L15.4996 4.81023L14.0493 3.29859C12.6377 1.82732 10.7232 1.00076 8.72691 1.00076C6.73064 1.00076 4.81613 1.82732 3.40455 3.29859C1.99297 4.76986 1.19995 6.76534 1.19995 8.84603C1.19995 10.9267 1.99297 12.9222 3.40455 14.3935L15.4996 27L27.5946 14.3935C28.2938 13.6651 28.8484 12.8003 29.2268 11.8484C29.6052 10.8966 29.8 9.87635 29.8 8.84603C29.8 7.81571 29.6052 6.79548 29.2268 5.84363C28.8484 4.89178 28.2938 4.02697 27.5946 3.29859Z" fill="#D9D9D9" stroke="black" stroke-width="2" stroke-linecap="round" stroke-linejoin="round"/>
</mask>
<g mask="url(#mask0_2472_932)">
<rect x="-1.40015" y="-0.733276" width="35.2" height="14.7333" fill="#338AF3"/>
<rect x="-1.40015" y="14" width="35.2" height="14.7333" fill="#FFCD1D"/>
</g>
</svg>
