<svg width="281" height="36" viewBox="0 0 281 36" fill="none" xmlns="http://www.w3.org/2000/svg">
  <path d="M2.82734 33.7575C2.27371 33.3766 1.83407 32.8216 1.50843 32.0925C1.20208 31.3428 1.04773 30.6477 1.04538 30.0074C0.982116 28.7689 1.03738 27.4862 1.21118 26.1593C1.40497 24.8317 1.67185 23.5917 2.01184 22.4391C2.24655 21.7105 2.5009 20.9711 2.7749 20.2211C3.04889 19.4711 3.33427 18.7607 3.63104 18.0899C3.92711 17.3992 4.21703 16.8187 4.5008 16.3485C5.08342 15.2675 5.68338 14.3961 6.30065 13.7341C6.93791 13.0715 7.42295 12.6343 7.75576 12.4225C8.30565 12.1232 8.96791 11.8899 9.74255 11.7228C10.5165 11.5356 11.276 11.5091 12.0212 11.6432C12.5457 11.765 13.0624 11.947 13.5712 12.1894C14.0999 12.4311 14.5608 12.7352 14.9539 13.1017C15.1807 13.2939 15.3579 13.4979 15.4855 13.7135C15.6131 13.9292 15.6811 14.157 15.6895 14.3968C15.7 14.6967 15.5702 14.9914 15.3001 15.281C15.0301 15.5706 14.7269 15.7713 14.3906 15.8831C14.0543 15.9949 13.7923 15.944 13.6048 15.7304C13.331 15.3397 13.0707 15.0486 12.8238 14.8571C12.5763 14.6456 12.3209 14.4945 12.0575 14.4036C11.8328 14.2714 11.5305 14.2119 11.1507 14.2251C10.791 14.2377 10.4036 14.3213 9.98878 14.4758C9.57323 14.6104 9.18115 14.8443 8.81255 15.1773C8.67682 15.3021 8.49287 15.4787 8.26069 15.7069C8.04851 15.9344 7.81808 16.2127 7.5694 16.5415C7.34002 16.8497 7.13167 17.1872 6.94435 17.554C6.4168 18.493 5.9699 19.4491 5.60365 20.4225C5.25668 21.3752 4.95284 22.4164 4.69211 23.5462C4.56825 24.0108 4.43823 24.5857 4.30206 25.2709C4.16519 25.9361 4.03832 26.6009 3.92144 27.2654C3.82454 27.9292 3.76483 28.5116 3.74231 29.0127C3.70677 29.7144 3.74596 30.2633 3.85985 30.6596C3.97375 31.0559 4.19305 31.3184 4.51774 31.4471C4.84173 31.5559 5.29111 31.5302 5.86587 31.37C6.38137 31.232 6.89407 31.0139 7.40398 30.7159C7.93318 30.3973 8.43995 30.0094 8.92429 29.5522C9.40793 29.075 9.83881 28.5196 10.2169 27.8861C10.553 27.1939 10.8212 26.5642 11.0215 25.9968C11.2418 25.4288 11.3464 24.9849 11.3352 24.6651C11.3433 24.3246 11.1678 24.1706 10.8088 24.2032C9.98996 24.2518 9.32931 24.2448 8.82683 24.1823C8.34433 24.1191 8.00755 23.9307 7.81649 23.6172C7.55455 23.5663 7.40696 23.3514 7.37371 22.9723C7.36045 22.5925 7.53952 22.2761 7.91091 22.023C8.24442 21.8312 8.71029 21.7049 9.30853 21.644C9.90677 21.583 10.5171 21.5817 11.1395 21.6401C11.7812 21.6777 12.2958 21.7998 12.6832 22.0064C13.1306 22.2109 13.442 22.5302 13.6172 22.9644C13.8118 23.3778 13.9174 23.8244 13.9342 24.3041C13.9709 24.7832 13.9567 25.2339 13.8914 25.6565C13.7359 26.3623 13.5098 27.0506 13.213 27.7214C12.9362 28.3915 12.5499 29.0754 12.0539 29.7731C11.7687 30.2033 11.3744 30.6573 10.8707 31.1352C10.3671 31.6131 9.83174 32.042 9.26466 32.4221C8.71826 32.8214 8.19905 33.1397 7.70703 33.377C6.92008 33.7647 6.08967 34.0539 5.21579 34.2445C4.3619 34.4344 3.56575 34.2721 2.82734 33.7575ZM16.9094 32.8755C16.9128 32.9755 16.8629 32.9772 16.7594 32.8808C16.6567 32.8043 16.4926 32.69 16.2672 32.5377C16.081 32.3641 15.8631 32.1416 15.6135 31.8701C15.3639 31.5987 15.2424 31.2727 15.2491 30.8923C15.333 30.4291 15.4895 29.7532 15.7187 28.8646C15.9471 27.9561 16.2241 27.0059 16.5497 26.0139C16.5764 25.6327 16.6252 25.3108 16.6961 25.0482C16.7869 24.7849 16.8324 24.6532 16.8324 24.6532C16.8509 24.6125 16.8888 24.5512 16.946 24.4691C17.0025 24.3671 17.09 24.294 17.2085 24.2498C17.3057 24.1664 17.3404 24.0151 17.3127 23.7959C17.2844 23.5568 17.2591 23.4076 17.2371 23.3483C17.3003 22.8658 17.4575 22.2099 17.7087 21.3806C17.9592 20.5314 18.2583 19.6404 18.6059 18.7077C18.9529 17.755 19.2823 16.873 19.5942 16.0616C19.6879 15.8782 19.7719 15.7052 19.8462 15.5425C19.9199 15.3598 19.9567 15.2685 19.9567 15.2685C19.894 15.1906 19.8212 15.1131 19.7385 15.0359C19.6557 14.9588 19.562 14.852 19.4571 14.7156C19.2896 14.5013 19.1613 14.2656 19.0722 14.0086C19.0025 13.7308 19.0637 13.4785 19.2559 13.2517C19.3124 13.1496 19.4178 13.0159 19.5721 12.8504C19.7464 12.6842 19.9311 12.5277 20.1261 12.3808C20.5767 12.1049 21.0195 11.8893 21.4543 11.734C21.9084 11.5581 22.3171 11.5138 22.6804 11.6012C23.3207 11.5988 23.8022 11.632 24.1248 11.7008C24.4674 11.7689 24.741 11.8694 24.9458 12.0023C25.0685 12.0781 25.1705 12.1346 25.2519 12.1718C25.3532 12.2083 25.4838 12.2237 25.6437 12.2181C25.9849 12.2462 26.3892 12.3622 26.8566 12.566C27.3233 12.7498 27.7404 12.9454 28.1079 13.1527C28.4753 13.36 28.6904 13.5026 28.7532 13.5804C29.1648 13.9063 29.5306 14.3538 29.8507 14.9229C30.1708 15.4921 30.374 16.1554 30.4605 16.9129C30.4766 17.3726 30.4709 17.783 30.4435 18.1442C30.4154 18.4854 30.3373 18.8283 30.2093 19.173C30.0805 19.4977 29.8639 19.8855 29.5595 20.3364C28.9926 21.2968 28.2755 22.2524 27.4082 23.2032C26.5608 24.1534 25.4708 25.032 24.1382 25.839C24.101 25.9203 24.0542 26.012 23.9977 26.114C23.9605 26.1954 23.9419 26.2361 23.9419 26.2361C23.9475 26.396 24.0548 26.6023 24.2637 26.8552C24.4927 27.1074 24.7723 27.3778 25.1026 27.6664C25.4321 27.9351 25.7717 28.2034 26.1213 28.4714C26.4908 28.7386 26.8193 28.9773 27.1069 29.1874C27.4137 29.3768 27.6384 29.509 27.7811 29.5841C28.0382 29.4951 28.247 29.4578 28.4076 29.4722C28.5675 29.4666 28.6899 29.5324 28.7747 29.6695C28.8595 29.8066 28.9179 30.0447 28.9497 30.3838C28.9388 30.6443 28.8776 30.8966 28.766 31.1407C28.6545 31.3847 28.5694 31.5278 28.5109 31.5698C28.3551 31.6954 28.2101 31.8405 28.0758 32.0053C27.9614 32.1694 27.815 32.2746 27.6365 32.3208C27.458 32.3671 27.2051 32.2859 26.8776 32.0772C25.9683 31.8287 25.1403 31.3273 24.3936 30.5729C23.6668 29.8178 22.8679 29.0052 21.997 28.1351C21.8094 27.9215 21.6543 27.7768 21.5316 27.7011C21.4082 27.6053 21.2765 27.5599 21.1366 27.5648C20.9967 27.5697 20.7878 27.607 20.5101 27.6767C20.3509 27.7023 20.1896 27.6679 20.0262 27.5735C19.8828 27.4785 19.7284 27.3538 19.5629 27.1995C19.4994 27.1016 19.4174 27.0444 19.3167 27.028C19.2361 27.0108 19.1679 27.0632 19.1121 27.1852C19.0763 27.3065 19.0037 27.5192 18.8942 27.8232C18.8041 28.1065 18.7039 28.3902 18.5938 28.6742C18.5036 28.9575 18.4113 29.1809 18.317 29.3443C18.3632 29.5227 18.3269 29.9143 18.2079 30.5188C18.0882 31.1033 17.9296 31.7192 17.7321 32.3665C17.6777 32.5285 17.5927 32.6716 17.4769 32.7957C17.3619 32.9398 17.273 32.9729 17.2102 32.895C17.1268 32.7979 17.0551 32.7504 16.9951 32.7525C16.9551 32.7539 16.9266 32.7949 16.9094 32.8755ZM22.0934 24.0192C22.6668 23.8191 23.227 23.5294 23.7741 23.15C24.3405 22.75 24.8645 22.2814 25.346 21.7443C25.8276 21.2072 26.2181 20.6432 26.5177 20.0524C26.6734 19.9269 26.8167 19.7318 26.9475 19.467C27.0777 19.1823 27.1917 19.0082 27.2895 18.9448C27.4617 18.7186 27.5757 18.5445 27.6315 18.4225C27.7073 18.2998 27.692 18.1502 27.5858 17.9738C27.5802 17.8139 27.595 17.6633 27.6301 17.522C27.6844 17.36 27.7292 17.2084 27.7643 17.0671C27.8544 16.7837 27.8457 16.5339 27.7381 16.3175C27.6505 16.1005 27.3519 15.8607 26.8424 15.5983C26.6584 15.4847 26.465 15.3914 26.2623 15.3184C26.0789 15.2248 25.8759 15.1418 25.6533 15.0695C25.4499 14.9766 25.2162 14.8747 24.9522 14.7638C24.6324 14.775 24.3001 14.7165 23.9554 14.5885C23.6301 14.4397 23.3778 14.3785 23.1986 14.4048C23.0993 14.4283 23.0036 14.5517 22.9113 14.775C22.8383 14.9777 22.7585 15.2707 22.6718 15.6539C22.6031 15.9765 22.5132 16.2698 22.4024 16.5339C22.3108 16.7772 22.1865 16.9417 22.0294 17.0272C22.0122 17.1078 21.932 17.3908 21.7889 17.8761C21.6457 18.3614 21.4757 18.9377 21.2789 19.605C21.0814 20.2522 20.8842 20.9095 20.6873 21.5768C20.4898 22.2241 20.3291 22.78 20.2053 23.2446C20.0814 23.7092 20.0209 23.9815 20.0236 24.0615C20.025 24.1014 20.0875 24.1693 20.2109 24.2651C20.3543 24.3601 20.4763 24.4159 20.5769 24.4324C20.5769 24.4324 20.5962 24.4117 20.6348 24.3703C20.6734 24.329 20.713 24.3176 20.7537 24.3362L21.4248 24.6429L22.0934 24.0192ZM29.623 32.4316C29.2563 32.2442 29.0487 32.0314 29.0003 31.7929C28.972 31.5537 29.0972 31.1291 29.3761 30.519C29.655 29.9089 30.0923 28.9631 30.6879 27.6815C31.1362 26.7653 31.4316 26.0546 31.574 25.5493C31.7358 25.0233 31.8228 24.65 31.8351 24.4295C31.8474 24.2089 31.8525 24.0687 31.8504 24.0087C31.8042 23.8302 31.8193 23.6896 31.8957 23.5869C31.9715 23.4641 32.0979 23.3597 32.275 23.2734C32.3715 23.17 32.595 22.9821 32.9457 22.7097C33.2965 22.4373 33.5655 22.1177 33.7528 21.7509C33.918 21.3249 34.1029 20.8882 34.3074 20.4408C34.5319 19.9927 34.8225 19.4322 35.1792 18.7593C35.5353 18.0665 36.0143 17.1692 36.6162 16.0675C36.9915 15.354 37.4336 14.5481 37.9426 13.6498C38.4716 12.7508 38.9933 11.9321 39.5078 11.1936C39.7179 10.9061 39.9401 10.6782 40.1744 10.51C40.4087 10.3417 40.6157 10.2544 40.7956 10.2481C41.2354 10.2328 41.6793 10.3373 42.1274 10.5618C42.5748 10.7663 42.9743 11.0326 43.326 11.3605C43.6777 11.6884 43.9187 12.0002 44.0491 12.2958C44.1546 12.4522 44.2064 12.7906 44.2046 13.311C44.2028 13.8314 44.1848 14.4624 44.1506 15.2041C44.1165 15.9457 44.0741 16.7377 44.0235 17.5799C43.9921 18.4015 43.936 19.3741 43.8552 20.4976C43.7744 21.6211 43.6953 22.7946 43.6179 24.018C43.5605 25.2408 43.5218 26.4228 43.5016 27.5642C43.4807 28.6857 43.5149 29.6651 43.6042 30.5024C43.6305 30.6816 43.6364 30.8515 43.622 31.0121C43.6076 31.1727 43.6021 31.303 43.6056 31.4029C43.4899 31.5271 43.2318 31.5861 42.8313 31.5801C42.4316 31.594 42.0397 31.5477 41.6558 31.441C41.2718 31.3344 41.0567 31.1918 41.0105 31.0133C40.9484 30.9554 40.9067 30.9068 40.8853 30.8676C40.8639 30.8283 40.8573 30.6384 40.8654 30.2979C40.8728 29.9374 40.8801 29.2868 40.8873 28.346L40.877 23.7535L40.4883 23.7971C40.3084 23.8034 39.9793 23.8349 39.501 23.8916C39.0427 23.9477 38.5351 24.0254 37.9782 24.1249C37.4406 24.2037 36.9434 24.2911 36.4864 24.3871C36.0288 24.4631 35.7111 24.5343 35.5333 24.6005C35.3534 24.6068 35.1377 24.7344 34.8863 24.9833C34.6548 25.2316 34.4358 25.5494 34.2292 25.9369C34.159 26.2195 34.0195 26.5245 33.8108 26.852C33.6214 27.1588 33.5285 27.3622 33.532 27.4621C33.3955 27.5669 33.2798 27.6911 33.1847 27.8345C33.1097 27.9772 33.0721 28.0485 33.0721 28.0485C33.0763 28.1684 32.9969 28.4714 32.8337 28.9574C32.6699 29.4234 32.4682 29.9508 32.2286 30.5395C31.9883 31.1082 31.7355 31.6073 31.4704 32.0368L30.7006 33.2044L29.623 32.4316ZM36.4285 21.8676C36.4285 21.8676 36.5377 21.8438 36.7562 21.7961C36.9747 21.7485 37.2331 21.6994 37.5315 21.649C37.8492 21.5779 38.128 21.5381 38.3679 21.5297C38.8234 21.3937 39.2 21.2905 39.4978 21.2201C39.8155 21.149 40.0743 21.1099 40.2741 21.1029C40.4733 21.076 40.6339 21.0904 40.7559 21.1462C40.8394 21.2433 40.9114 21.3008 40.9721 21.3187C41.0527 21.3359 41.0931 21.3445 41.0931 21.3445C41.1117 21.3038 41.1443 21.0926 41.191 20.7107C41.2377 20.3288 41.2913 19.8567 41.3517 19.2942C41.4121 18.7318 41.4718 18.1493 41.5308 17.5469C41.5891 16.9245 41.6392 16.3524 41.681 15.8306C41.7221 15.2889 41.7474 14.8677 41.757 14.5672C41.7637 14.1867 41.7418 13.8473 41.6914 13.5489C41.6402 13.2305 41.6147 13.0713 41.6147 13.0713C41.4947 13.0754 41.2725 13.3033 40.9481 13.7549C40.643 14.1859 40.2831 14.7688 39.8685 15.5037C39.4732 16.2179 39.0799 16.9921 38.6888 17.8263C38.5022 18.213 38.3228 18.5195 38.1506 18.7456C37.9984 18.9711 37.8723 19.0855 37.7723 19.089C37.7338 19.1304 37.6294 19.2941 37.4593 19.5802C37.3085 19.8457 37.139 20.1518 36.951 20.4985C36.7823 20.8246 36.6329 21.13 36.5027 21.4147C36.3919 21.6788 36.3671 21.8297 36.4285 21.8676ZM51.6275 32.6838C50.4945 32.9034 49.666 32.9624 49.1421 32.8606C48.619 32.7788 48.1609 32.5547 47.7678 32.1882C47.5824 32.0345 47.4847 31.8178 47.475 31.538C47.4659 31.2781 47.5003 31.1169 47.5781 31.0541C47.7346 30.9486 47.9602 30.8206 48.2552 30.6702C48.5501 30.5198 49.1163 30.4 49.9536 30.3107C50.9544 30.3158 51.9 30.1727 52.7904 29.8815C53.7008 29.5895 54.4984 29.2215 55.1833 28.7773C55.8675 28.3131 56.3608 27.8256 56.6632 27.3148C57.0578 26.5805 57.2267 25.9743 57.17 25.496C57.1326 24.997 56.8863 24.5353 56.4312 24.1109C56.1637 23.9001 55.95 23.7975 55.7901 23.8031C55.6295 23.7887 55.3583 23.7581 54.9764 23.7114C54.5966 23.7247 54.2982 23.7751 54.0811 23.8628C53.8641 23.9504 53.6184 24.079 53.3442 24.2487C53.0892 24.3977 52.8342 24.5467 52.5793 24.6957C52.3436 24.824 52.1066 24.9123 51.8681 24.9607C51.7345 25.1454 51.5098 25.3034 51.1942 25.4345C50.8979 25.5449 50.6098 25.605 50.33 25.6147C50.0502 25.6245 49.8585 25.5812 49.7551 25.4847C49.5952 25.4903 49.4688 25.5948 49.3758 25.7982C49.2829 26.0015 49.1069 26.4079 48.848 27.0173C48.7607 27.3806 48.634 27.7652 48.4681 28.1713C48.3021 28.5773 48.2034 28.901 48.1718 29.1422C47.8792 29.9329 47.6372 30.4517 47.4457 30.6985C47.2741 30.9446 47.0884 31.0712 46.8886 31.0782C46.7686 31.0824 46.6566 31.0262 46.5525 30.9098C46.4484 30.7934 46.2825 30.6291 46.055 30.4169C45.8951 30.4224 45.7203 30.2885 45.5306 30.0149C45.3403 29.7214 45.3363 29.3213 45.5187 28.8146C45.6647 28.4093 45.8461 27.8726 46.0629 27.2046C46.2797 26.5367 46.4962 25.8587 46.7123 25.1707C46.9477 24.4621 47.147 23.8648 47.3101 23.3788C47.4925 22.8721 47.6034 22.6081 47.6427 22.5867C47.6729 22.3055 47.7359 22.1031 47.8316 21.9797C47.9274 21.8563 47.9745 21.7746 47.9731 21.7346C48.0096 21.6333 48.1008 21.38 48.2468 20.9746C48.3927 20.5693 48.5483 20.1536 48.7135 19.7276C48.8988 19.3008 49.0685 19.0047 49.2229 18.8393C49.2194 18.7393 49.3023 18.5363 49.4718 18.2302C49.6405 17.9041 49.8192 17.5777 50.0079 17.2509C50.1373 16.9462 50.2647 16.5815 50.39 16.1569C50.5352 15.7316 50.6454 15.4475 50.7204 15.3048C50.9498 14.9966 51.0331 14.8036 50.9704 14.7258C50.9069 14.6279 50.7714 14.4726 50.5638 14.2597C50.5225 14.2211 50.4773 14.0726 50.4282 13.8141C50.3785 13.5357 50.3522 13.3565 50.3494 13.2765C50.348 13.2366 50.4452 13.1531 50.6408 13.0262C50.8365 12.8993 51.0719 12.761 51.3468 12.6113C51.641 12.441 51.916 12.2913 52.1716 12.1623C52.4266 12.0133 52.6133 11.9167 52.7319 11.8725C52.8304 11.8291 53.0275 11.7422 53.3231 11.6118C53.638 11.4607 53.9533 11.3196 54.2689 11.1885C54.5845 11.0574 54.8016 10.9698 54.9201 10.9256C55.2165 10.8152 55.5338 10.7341 55.8722 10.6822C56.2306 10.6297 56.5201 10.6096 56.7407 10.6219C57.2541 10.4238 57.7548 10.4364 58.2429 10.6595C58.4249 10.7132 58.6696 10.8447 58.9771 11.0541C59.3039 11.2428 59.6017 11.4625 59.8707 11.7133C60.1596 11.9634 60.3282 12.2076 60.3765 12.4461C60.4256 12.7045 60.465 12.9733 60.4947 13.2525C60.5438 13.5109 60.494 13.8028 60.3452 14.1282C60.335 14.4087 60.2587 14.8017 60.1162 15.3069C59.9931 15.7915 59.8588 16.2465 59.7136 16.6718C59.5684 17.0971 59.4379 17.3719 59.3221 17.496C59.0184 17.9669 58.736 18.477 58.475 19.0265C58.2133 19.5559 57.8614 20.0785 57.4191 20.5943C57.4191 20.5943 57.3519 20.6767 57.2176 20.8415C57.0826 20.9863 56.8043 21.3262 56.3827 21.8612C56.3827 21.8612 56.5529 21.8653 56.8934 21.8734C57.2539 21.8808 57.5158 21.9317 57.6792 22.0261C58.1494 22.3098 58.5724 22.6753 58.9483 23.1225C59.3434 23.5489 59.6293 23.9992 59.8059 24.4733C59.9942 24.7069 60.0657 25.0346 60.0204 25.4565C59.9951 25.8776 59.8905 26.3215 59.7067 26.7882C59.5428 27.2542 59.3376 27.6816 59.091 28.0705C58.9802 28.3345 58.7615 28.6623 58.435 29.054C58.1084 29.4456 57.8005 29.7966 57.5111 30.1069C57.2211 30.3972 57.0561 30.543 57.0161 30.5444C56.9348 30.5072 56.8148 30.5114 56.6563 30.557C56.4985 30.6225 56.2525 30.7412 55.9183 30.9129C55.784 31.0777 55.6293 31.2332 55.4543 31.3794C55.2793 31.5256 55.1411 31.5805 55.0398 31.544C55.0398 31.544 54.9313 31.5878 54.7142 31.6754C54.4978 31.783 54.2329 31.9324 53.9193 32.1234C53.7016 32.1911 53.3642 32.2729 52.9073 32.3689C52.471 32.4842 52.0444 32.5892 51.6275 32.6838ZM50.3525 22.8223C50.3739 22.8615 50.5228 22.8263 50.7991 22.7166C51.0955 22.6062 51.44 22.4441 51.8328 22.2302C52.2456 22.0157 52.6476 21.7815 53.039 21.5277C53.4304 21.2739 53.7422 21.0329 53.9743 20.8046C54.2472 20.595 54.4894 20.3664 54.7008 20.1189C54.9323 19.8706 55.1145 19.6441 55.2475 19.4394C55.3797 19.2146 55.4448 19.0723 55.4427 19.0123C55.4427 19.0123 55.4892 18.9106 55.5821 18.7072C55.6744 18.4839 55.8259 18.2384 56.0367 17.9709C56.2875 17.702 56.479 17.4552 56.6112 17.2304C56.7427 16.9857 56.8075 16.8333 56.8054 16.7734C56.8054 16.7734 56.8519 16.6717 56.9448 16.4683C57.0378 16.2649 57.1497 16.0309 57.2805 15.7662C57.452 15.52 57.5818 15.2253 57.6699 14.882C57.758 14.5388 57.8192 14.2865 57.8536 14.1252C57.8761 13.6241 57.7643 13.2878 57.5182 13.1163C57.2913 12.9241 56.9791 12.8649 56.5814 12.9388C56.323 12.9879 56.0645 13.0369 55.8061 13.086C55.5669 13.1144 55.3185 13.1631 55.0607 13.2321C54.823 13.3004 54.5766 13.4091 54.3217 13.5581C54.0088 13.7691 53.7859 13.977 53.653 14.1818C53.5194 14.3666 53.5728 14.4648 53.8134 14.4764C53.9733 14.4708 54.0182 14.6093 53.948 14.8919C53.8778 15.1746 53.7112 15.5606 53.4481 16.0501C53.3737 16.2128 53.215 16.5385 52.9719 17.0273C52.7288 17.5161 52.4485 18.0862 52.1311 18.7377C51.8329 19.3685 51.5444 19.9889 51.2655 20.599C50.9866 21.2091 50.7546 21.7276 50.5694 22.1543C50.4034 22.5603 50.3312 22.783 50.3525 22.8223ZM72.7401 31.5262C72.381 31.5588 72.0753 31.3994 71.8229 31.048C71.5704 30.6966 71.45 30.4006 71.4616 30.16C71.4705 29.8395 71.5444 29.3767 71.6833 28.7714C71.8223 28.1662 71.9809 27.5503 72.1591 26.9237C72.3374 26.2971 72.5002 25.8011 72.6475 25.4358C72.7163 25.1132 72.7765 24.8309 72.8281 24.5889C72.8989 24.3263 72.943 24.1547 72.9602 24.074C73.0173 23.992 73.1 23.779 73.208 23.435C73.3361 23.0903 73.4345 22.7567 73.5033 22.4341C73.5377 22.2728 73.6071 21.9702 73.7117 21.5262C73.8356 21.0616 73.977 20.5264 74.1359 19.9205C74.3149 19.3138 74.4842 18.7176 74.6438 18.1316C74.8234 17.545 74.9755 17.0294 75.1001 16.5848C75.2247 16.1402 75.3045 15.8472 75.3396 15.7059C75.4911 15.4604 75.603 15.2264 75.6753 15.0037C75.7475 14.7811 75.7923 14.6294 75.8095 14.5488C75.9266 14.4646 75.9931 14.3623 76.0089 14.2416C76.024 14.101 76.0301 13.9907 76.0273 13.9108C76.0238 13.8108 76.051 13.7299 76.1089 13.6678C76.1868 13.605 76.2243 13.5337 76.2215 13.4537C76.2994 13.391 76.349 13.3792 76.3704 13.4185C76.3918 13.4578 76.4507 13.4257 76.5471 13.3223L76.6614 12.2977L79.3288 12.1745C79.2972 12.4158 79.2477 12.7177 79.1803 13.0802C79.1122 13.4228 78.9384 13.8892 78.6588 14.4793C78.5728 14.8825 78.4654 15.2465 78.3367 15.5712C78.2279 15.8952 78.1853 16.1068 78.2088 16.2061C78.1702 16.2474 78.0872 16.4504 77.9599 16.8151C77.8525 17.1791 77.718 17.624 77.5562 18.15C77.4145 18.6753 77.2627 19.2009 77.101 19.7269C76.9592 20.2521 76.8254 20.7171 76.6994 21.1217C76.5927 21.5057 76.5212 21.7483 76.4847 21.8497C76.3359 22.1751 76.1725 22.651 75.9942 23.2777C75.816 23.9043 75.5455 24.7542 75.1827 25.8275C75.034 26.1529 74.8509 26.6396 74.6333 27.2876C74.4358 27.9349 74.2762 28.5208 74.1544 29.0454C73.9617 29.8326 73.7814 30.3992 73.6134 30.7453C73.4653 31.0907 73.3224 31.2958 73.1846 31.3606C73.0475 31.4455 72.8993 31.5007 72.7401 31.5262ZM72.3943 13.8876C71.5776 13.9961 71.0145 13.9157 70.7049 13.6464C70.4153 13.3763 70.3049 13.08 70.3736 12.7574C70.4252 12.5154 70.5582 12.3107 70.7724 12.1431C71.006 11.9548 71.4305 11.7899 72.046 11.6484C72.2644 11.6007 72.5425 11.541 72.8802 11.4691C73.2379 11.3966 73.5756 11.3248 73.8933 11.2536C74.5501 11.1507 75.0873 11.0619 75.505 10.9872C75.9426 10.9119 76.3906 10.8462 76.8489 10.7902C77.3073 10.7342 77.8855 10.674 78.5837 10.6096C79.1619 10.5493 79.6506 10.5023 80.0496 10.4683C80.468 10.4137 80.6772 10.3864 80.6772 10.3864C80.7371 10.3843 80.9477 10.3969 81.3089 10.4243C81.6701 10.4518 82.0616 10.4881 82.4834 10.5334C82.9052 10.5787 83.2175 10.6379 83.4202 10.7108C83.8834 10.7947 84.2594 10.9617 84.5483 11.2118C84.8372 11.4618 85.0276 11.7554 85.1194 12.0924C85.1878 12.3301 85.1944 12.52 85.1393 12.662C85.0835 12.784 84.9771 12.8878 84.82 12.9734C84.3651 13.1293 83.9896 13.2625 83.6932 13.3729C83.4162 13.4626 83.136 13.4624 82.8527 13.3723C82.7493 13.2758 82.6262 13.1901 82.4835 13.115C82.3608 13.0392 82.1388 12.9869 81.8176 12.9581C81.5157 12.9086 81.0343 12.8754 80.3733 12.8585C79.8157 12.938 79.327 12.9851 78.9073 12.9997C78.4876 13.0144 78.2794 13.0717 78.2829 13.1716L76.5171 13.3233L75.0533 13.5245C74.8541 13.5515 74.5753 13.5913 74.2169 13.6438C73.8578 13.6764 73.5091 13.7186 73.1707 13.7704C72.8316 13.8023 72.5728 13.8413 72.3943 13.8876ZM84.504 32.2862C84.504 32.2862 84.3731 32.2607 84.1111 32.2098C83.8699 32.1782 83.6696 32.1752 83.5104 32.2008C83.1885 32.152 82.8628 31.9933 82.5332 31.7246C82.2044 31.4759 82.0643 31.1906 82.1131 30.8687C82.1903 30.786 82.2343 30.6143 82.2452 30.3538C82.2761 30.0926 82.2888 29.882 82.2832 29.7221C82.3376 29.5601 82.3734 29.4388 82.3906 29.3581C82.4078 29.2775 82.4507 29.0759 82.5195 28.7533C82.5476 28.4121 82.6112 27.9396 82.7102 27.3357C82.8284 26.7112 82.9553 26.0464 83.0908 25.3412C83.2256 24.6161 83.3617 23.9309 83.4993 23.2857C83.6562 22.6199 83.7869 22.065 83.8914 21.621C84.016 21.1764 84.1072 20.9231 84.1651 20.861C84.1651 20.861 84.164 20.831 84.162 20.7711C84.1592 20.6911 84.1464 20.6115 84.1236 20.5323C84.1236 20.5323 84.1304 20.442 84.1442 20.2614C84.1771 20.0601 84.2591 19.8271 84.3899 19.5624C84.4622 19.3397 84.5138 19.0978 84.5447 18.8365C84.5956 18.5746 84.6196 18.4037 84.6168 18.3237C84.6933 18.221 84.7848 17.9776 84.8915 17.5937C85.0175 17.189 85.1434 16.7844 85.2694 16.3798C85.3581 16.0565 85.4562 15.7128 85.5636 15.3489C85.6909 14.9842 85.8 14.6702 85.8909 14.4069C86.0011 14.1228 86.0561 13.9808 86.0561 13.9808C86.0533 13.9009 86.0519 13.8609 86.0519 13.8609C86.0512 13.8409 86.0509 13.8309 86.0509 13.8309C86.1081 13.7489 86.2637 13.3332 86.5177 12.5839C86.7916 11.8339 87.1579 10.8605 87.6164 9.66375C87.6908 9.50105 87.7744 9.31802 87.8674 9.11465C87.9804 8.91059 88.0354 8.76858 88.0326 8.68863C88.127 8.52524 88.3041 8.439 88.5639 8.42993C88.8238 8.42086 89.0957 8.4714 89.3797 8.58155C89.663 8.67172 89.8585 8.82499 89.9661 9.04136L90.6725 9.49699L89.7295 11.7213C89.4692 12.2907 89.2475 12.8187 89.0644 13.3054C88.8806 13.7721 88.79 14.0455 88.7928 14.1254C88.7928 14.1254 88.7571 14.2467 88.6855 14.4894C88.6139 14.732 88.5248 15.0453 88.4181 15.4293C88.3307 15.7926 88.2434 16.1558 88.156 16.5191C87.9784 17.1657 87.8071 17.702 87.6418 18.128C87.4966 18.5533 87.4254 18.806 87.4281 18.8859C87.4268 18.846 87.6356 18.8087 88.0546 18.774C88.473 18.7194 88.9916 18.6712 89.6105 18.6296C90.2487 18.5673 90.8973 18.5146 91.5562 18.4716C92.2344 18.4079 92.8326 18.347 93.3509 18.2889C93.8892 18.2301 94.2576 18.1772 94.4561 18.1302L95.9778 17.8669L96.6042 15.1734C96.7238 14.5889 96.8797 13.893 97.0716 13.0859C97.2835 12.278 97.4693 11.5811 97.629 10.9951C97.876 10.0459 98.1721 9.35517 98.5172 8.92287C98.8616 8.47057 99.1538 8.24023 99.3936 8.23186C99.7334 8.21999 100.008 8.35048 100.218 8.62333C100.427 8.89618 100.575 9.11116 100.661 9.26827C100.927 9.45908 101.056 9.69474 101.045 9.97527C101.055 10.2551 100.919 10.6401 100.636 11.1303C100.375 11.6797 100.155 12.2777 99.9777 12.9243C99.8202 13.5702 99.6684 14.0958 99.5225 14.5012C99.5509 14.7403 99.5378 14.9409 99.4835 15.1029C99.4284 15.2449 99.3626 15.3673 99.2862 15.47C99.2476 15.5114 99.1729 15.6641 99.062 15.9281C98.9711 16.1915 98.8803 16.4548 98.7894 16.7181C98.7185 16.9807 98.6841 17.142 98.6862 17.202C98.7111 17.3412 98.6974 17.5218 98.6451 17.7438C98.5921 17.9457 98.5271 18.0881 98.4499 18.1708C98.4341 18.2915 98.375 18.6037 98.2725 19.1076C98.1693 19.5915 98.0393 20.1664 97.8824 20.8323C97.7449 21.4775 97.597 22.113 97.4387 22.7389C97.3005 23.3641 97.1583 23.8794 97.0124 24.2847C97.0373 24.424 97.0036 24.6052 96.9113 24.8286C96.8184 25.032 96.7847 25.2133 96.8102 25.3725C96.7387 25.6151 96.6495 25.9284 96.5429 26.3124C96.4555 26.6756 96.4236 26.9069 96.447 27.0061C96.3831 27.4686 96.291 27.9822 96.1706 28.5467C96.0503 29.1113 95.9474 29.6051 95.8622 30.0284C95.7769 30.4516 95.7353 30.6932 95.7374 30.7532C95.6802 30.8352 95.5007 30.8515 95.1987 30.802C94.9175 30.7718 94.6656 30.7206 94.4429 30.6483C94.0555 30.4417 93.7548 30.142 93.541 29.7492C93.3478 29.3757 93.3432 28.9556 93.527 28.4889C93.6214 28.3255 93.7173 27.922 93.8149 27.2782C93.9325 26.6337 94.0504 25.9992 94.1687 25.3746C94.2582 25.0713 94.3445 24.6781 94.4277 24.1949C94.5109 23.7117 94.5841 23.2288 94.6473 22.7463C94.7305 22.2631 94.7961 21.8506 94.8442 21.5087C94.9123 21.1661 94.9656 20.9742 95.0042 20.9328C95.0014 20.8528 94.999 20.7829 94.9969 20.7229C94.9948 20.6629 94.9937 20.633 94.9937 20.633C94.9524 20.5944 94.7318 20.5821 94.332 20.596C93.9316 20.59 93.4319 20.6075 92.833 20.6484C92.234 20.6893 91.5958 20.7516 90.9183 20.8353C90.2608 20.9183 89.644 21.0199 89.0678 21.1401C88.8486 21.1678 88.5592 21.1879 88.1994 21.2004C87.8396 21.213 87.5801 21.2321 87.4209 21.2576C87.2011 21.2653 87.0115 21.2819 86.8523 21.3075C86.7124 21.3124 86.6424 21.3148 86.6424 21.3148C86.6245 21.3755 86.5716 21.5775 86.4835 21.9208C86.3954 22.264 86.2998 22.6776 86.1966 23.1615C86.0927 23.6254 85.9896 24.1093 85.8871 24.6132C85.7846 25.1171 85.6907 25.5807 85.6055 26.0039C85.5395 26.4064 85.5 26.708 85.487 26.9086C85.4396 27.2704 85.3657 27.7333 85.2653 28.2972C85.1642 28.841 85.0535 29.3952 84.9331 29.9598C84.8327 30.5236 84.7399 31.0171 84.6546 31.4404C84.59 31.8829 84.5398 32.1648 84.504 32.2862ZM102.205 30.9476C102.038 30.7533 101.784 30.6421 101.443 30.614C101.102 30.5859 100.583 30.614 99.8853 30.6984C99.6068 30.7481 99.3163 30.7383 99.0137 30.6688C98.7111 30.5993 98.457 30.4881 98.2516 30.3352C98.0461 30.1823 97.9602 30.0152 97.9939 29.8339C98.0055 29.5933 98.2263 29.3254 98.6563 29.0303C99.1055 28.7144 99.7592 28.5215 100.617 28.4515L101.903 28.3165L102.181 27.6764C102.233 27.4545 102.303 27.1419 102.389 26.7386C102.495 26.3347 102.599 25.9007 102.703 25.4368C102.774 25.1542 102.869 24.7406 102.99 24.1961C103.131 23.6508 103.281 23.0752 103.44 22.4693C103.599 21.8634 103.74 21.3181 103.863 20.8335C103.987 20.3489 104.055 20.0164 104.069 19.8358C104.142 19.6531 104.241 19.3194 104.364 18.8349C104.487 18.3503 104.61 17.8557 104.732 17.3511C104.854 16.8265 104.932 16.4636 104.965 16.2623C105.368 14.6472 105.629 13.5175 105.747 12.873C105.864 12.2085 105.882 11.8776 105.802 11.8804C105.722 11.8832 105.533 11.8998 105.234 11.9303C104.934 11.9608 104.596 12.0126 104.218 12.0858C103.86 12.1384 103.542 12.1995 103.264 12.2692C102.986 12.319 102.827 12.3645 102.789 12.4059C102.694 12.5493 102.524 12.5652 102.28 12.4537C102.036 12.3421 101.87 12.1878 101.784 11.9907C101.757 11.8115 101.74 11.592 101.731 11.3322C101.741 11.0717 101.786 10.91 101.864 10.8472C101.999 10.7224 102.295 10.582 102.75 10.4261C103.224 10.2694 103.749 10.121 104.325 9.98082C104.9 9.82067 105.416 9.69259 105.872 9.59658C106.211 9.54474 106.548 9.45292 106.883 9.32113C107.218 9.16935 107.473 9.01037 107.647 8.84418C107.824 8.75795 107.992 8.69205 108.151 8.64649C108.329 8.60024 108.509 8.58396 108.689 8.59767C108.852 8.67203 109.123 8.70259 109.503 8.68932C109.902 8.65538 110.321 8.61074 110.759 8.5554C111.874 8.3764 112.632 8.32989 113.036 8.41587C113.438 8.48186 113.717 8.74228 113.873 9.19711C113.986 9.5534 114.017 9.86251 113.966 10.1244C113.934 10.3657 113.748 10.4823 113.408 10.4741C113.23 10.5404 112.902 10.6019 112.424 10.6586C111.965 10.7146 111.477 10.7717 110.959 10.8298C110.282 10.9335 109.805 11.0402 109.529 11.1499C109.272 11.2389 109.125 11.3241 109.088 11.4055C109.01 11.4882 108.943 11.5706 108.886 11.6527C108.849 11.734 108.792 11.826 108.716 11.9288C108.758 12.0073 108.737 12.2482 108.651 12.6515C108.565 13.0547 108.46 13.4887 108.336 13.9533C108.265 14.2159 108.159 14.6098 108.017 15.1351C107.875 15.6404 107.723 16.176 107.563 16.7419C107.422 17.3072 107.29 17.8221 107.167 18.2867C107.042 18.7313 106.952 19.0246 106.897 19.1667C106.843 19.3486 106.79 19.5506 106.738 19.7726C106.705 19.9738 106.69 20.1245 106.694 20.2244C106.419 21.5348 106.168 22.6442 105.94 23.5527C105.73 24.4406 105.538 25.2378 105.363 25.9443C105.207 26.6302 105.051 27.346 104.897 28.0919C104.897 28.0919 105.137 28.0735 105.616 28.0368C106.114 27.9793 106.622 27.9016 107.139 27.8035C107.835 27.6791 108.343 27.6113 108.662 27.6002C109.002 27.5883 109.224 27.6206 109.326 27.6971C109.448 27.7528 109.511 27.8407 109.516 27.9606C109.539 28.0599 109.583 28.1784 109.648 28.3162C110.086 28.8212 110.159 29.1989 109.868 29.4492C109.596 29.6989 108.902 29.8632 107.784 29.9423C106.747 30.0585 105.93 30.1471 105.331 30.208C104.754 30.2882 104.336 30.3628 104.079 30.4319C103.841 30.5002 103.714 30.6047 103.699 30.7453C103.703 30.8452 103.627 30.958 103.471 31.0835C103.316 31.229 103.118 31.3059 102.879 31.3143C102.659 31.322 102.434 31.1997 102.205 30.9476ZM120.309 29.3548C119.434 29.5054 118.523 29.5072 117.578 29.3601C116.633 29.233 115.792 28.9322 115.055 28.4576C114.338 28.0023 113.836 27.3795 113.549 26.589C113.461 26.372 113.384 26.1745 113.318 25.9967C113.271 25.8182 113.288 25.7276 113.368 25.7248C113.568 25.7178 113.575 25.6175 113.388 25.4239C113.325 25.3461 113.289 25.1672 113.279 24.8874C113.269 24.5876 113.308 24.286 113.397 23.9827C113.486 23.6594 113.639 23.444 113.855 23.3364C114.091 23.2081 114.341 23.1993 114.605 23.3102C114.868 23.401 115.082 23.5236 115.248 23.678C115.413 23.8323 115.457 23.9408 115.379 24.0036C115.379 24.0036 115.423 24.1121 115.511 24.3292C115.598 24.5263 115.626 24.7654 115.596 25.0466C115.786 25.3402 115.905 25.5862 115.952 25.7847C116.018 25.9625 116.245 26.1547 116.632 26.3613C116.899 26.5521 117.094 26.6954 117.218 26.7911C117.341 26.8869 117.653 26.936 118.154 26.9385C118.473 26.9274 118.692 26.8997 118.811 26.8555C118.93 26.8114 119.026 26.708 119.1 26.5453C119.195 26.3819 119.356 26.1261 119.584 25.7779C119.631 25.3961 119.529 24.7892 119.28 23.9574C119.051 23.1249 118.717 22.156 118.278 21.0506C117.839 19.9253 117.317 18.7527 116.714 17.533C116.587 17.3174 116.469 17.0913 116.361 16.855C116.272 16.6179 116.228 16.4994 116.228 16.4994C116.275 16.1175 116.243 15.7684 116.131 15.4521C116.008 15.3564 115.93 15.1289 115.897 14.7699C115.884 14.3901 115.852 14.051 115.802 13.7526C115.827 13.3115 115.855 12.9703 115.886 12.729C115.918 12.4878 116.038 12.2034 116.247 11.8759C116.797 11.0162 117.56 10.2391 118.537 9.54457C119.512 8.83009 120.646 8.35022 121.939 8.10497C122.157 8.05732 122.466 8.02651 122.866 8.01255C123.266 7.99859 123.686 8.00392 124.127 8.02854C124.588 8.03248 124.999 8.05814 125.361 8.10554C125.743 8.15225 126.004 8.20314 126.146 8.25821C126.938 8.57078 127.452 8.97308 127.69 9.4651C127.927 9.95711 128.061 10.3627 128.092 10.6818C128.121 10.9209 128.147 11.1001 128.171 11.2194C128.215 11.3179 128.238 11.4171 128.241 11.5171C128.244 11.597 128.189 11.739 128.076 11.9431C127.98 12.0665 127.777 12.2438 127.464 12.4748C127.152 12.6858 126.789 12.9086 126.377 13.1431C125.985 13.377 125.592 13.5908 125.199 13.7847C124.805 13.9585 124.478 14.07 124.22 14.119C124.043 14.2053 123.934 14.2491 123.894 14.2505C123.874 14.2512 123.863 14.2115 123.86 14.1316C123.916 14.0096 123.923 13.9193 123.881 13.8607C123.859 13.8014 123.847 13.7718 123.847 13.7718C123.588 13.7809 123.454 13.6755 123.446 13.4556C123.439 13.2358 123.617 12.8893 123.98 12.4163C124.326 12.004 124.593 11.6145 124.78 11.2477C124.967 10.881 125.009 10.6494 124.906 10.5529C124.783 10.4771 124.571 10.4245 124.27 10.395C123.989 10.3648 123.668 10.356 123.308 10.3685C122.969 10.3804 122.64 10.4219 122.322 10.493C121.333 10.8278 120.537 11.2358 119.933 11.7172C119.349 12.1778 118.989 12.7507 118.853 13.4359C118.723 13.7406 118.704 14.0515 118.795 14.3685C118.906 14.6848 119.051 15.1 119.229 15.6141C119.286 16.1124 119.34 16.5008 119.39 16.7792C119.459 17.0569 119.495 17.2158 119.496 17.2558C119.499 17.3357 119.513 17.4553 119.539 17.6145C119.584 17.753 119.623 18.0118 119.656 18.3909C119.701 18.5294 119.808 18.7158 119.976 18.9501C120.143 19.1644 120.422 19.4048 120.812 19.6714C120.867 20.1097 120.95 20.487 121.061 20.8033C121.192 21.099 121.272 21.3863 121.301 21.6655C121.729 22.451 122.026 23.2311 122.194 24.0058C122.36 24.7604 122.432 25.3883 122.41 25.8894C122.407 26.3898 122.336 26.6424 122.196 26.6473C122.176 26.648 122.167 26.6783 122.169 26.7383C122.171 26.7982 122.182 26.8279 122.202 26.8272C122.206 26.9471 122.133 27.1398 121.982 27.4052C121.851 27.65 121.68 27.9161 121.47 28.2036C121.26 28.4911 121.048 28.7386 120.835 28.9462C120.623 29.1737 120.448 29.3099 120.309 29.3548ZM138.597 28.416C138.235 28.3686 137.78 28.2344 137.232 28.0134C136.684 27.7924 136.175 27.54 135.704 27.2562C135.254 26.9518 134.964 26.6717 134.835 26.4161C134.497 25.9075 134.246 25.3259 134.083 24.6712C133.94 24.0158 134.004 23.2531 134.274 22.3832C134.342 22.0406 134.392 21.7587 134.424 21.5374C134.456 21.2962 134.468 21.0856 134.462 20.9057C134.462 20.9057 134.481 20.875 134.519 20.8137C134.576 20.7316 134.605 20.6906 134.605 20.6906C134.662 20.6086 134.71 20.5468 134.748 20.5055C134.786 20.4441 134.824 20.3828 134.862 20.3214C134.919 20.2394 134.976 20.1573 135.033 20.0753C135.09 19.9732 135.118 19.9222 135.118 19.9222C135.233 19.7781 135.298 19.6358 135.313 19.4951C135.328 19.3545 135.324 19.2146 135.299 19.0754C135.297 19.0154 135.295 18.9555 135.292 18.8955C135.31 18.8348 135.328 18.7742 135.346 18.7135C135.422 18.5908 135.479 18.4988 135.517 18.4374C135.574 18.3753 135.632 18.3133 135.69 18.2512C135.768 18.1885 135.826 18.1364 135.865 18.095C135.923 18.053 135.953 18.0319 135.953 18.0319C136.014 18.0698 136.054 18.0684 136.073 18.0277C136.111 17.9864 136.168 17.8943 136.243 17.7516C136.3 17.6496 136.374 17.4769 136.465 17.2336C136.576 16.9695 136.695 16.6652 136.823 16.3205C136.951 15.9558 137.068 15.5915 137.176 15.2275C137.868 13.8625 138.588 12.7067 139.336 11.76C140.103 10.7927 140.816 10.0273 141.477 9.46392C142.157 8.87983 142.683 8.47122 143.055 8.23809L143.231 8.11189L143.585 7.94941C143.684 7.90595 143.843 7.88038 144.063 7.8727C144.302 7.84433 144.521 7.81667 144.721 7.7897C145 7.77993 145.302 7.81943 145.625 7.9082C145.968 7.97628 146.271 8.05576 146.534 8.14663C146.797 8.2175 146.939 8.28257 146.961 8.34184C146.964 8.42179 146.996 8.47071 147.056 8.48861C147.117 8.5065 147.147 8.51545 147.147 8.51545C147.267 8.49127 147.461 8.62456 147.732 8.9153C148.002 9.20604 148.284 9.5564 148.579 9.96637C148.893 10.3557 149.126 10.7278 149.278 11.0826C149.509 11.3948 149.626 11.881 149.629 12.5413C149.632 13.1816 149.623 13.8023 149.604 14.4033C149.575 14.7045 149.518 15.0867 149.434 15.5499C149.37 15.9924 149.295 16.4253 149.209 16.8486C149.123 17.2518 149.044 17.5548 148.971 17.7574C148.953 17.8181 148.88 18.0208 148.752 18.3654C148.643 18.6894 148.525 19.0238 148.397 19.3685C148.289 19.7124 148.217 19.9351 148.18 20.0364C147.979 20.5838 147.749 21.1622 147.49 21.7716C147.231 22.361 146.95 22.9211 146.648 23.452C146.347 23.9828 146.052 24.4234 145.764 24.7736C145.475 25.1039 145.191 25.2839 144.912 25.3137C144.912 25.3137 144.893 25.3244 144.853 25.3458C144.834 25.3664 144.826 25.4168 144.829 25.4967C144.83 25.5367 144.686 25.7018 144.396 25.9921C144.105 26.2624 143.775 26.5541 143.406 26.8672C143.056 27.1596 142.793 27.3789 142.618 27.5251C142.203 27.6797 141.738 27.836 141.224 27.9941C140.709 28.1721 140.214 28.2995 139.736 28.3762C139.259 28.4729 138.879 28.4862 138.597 28.416ZM138.833 25.7361C139.594 25.7296 140.212 25.6879 140.69 25.6112C141.188 25.5338 141.632 25.3682 142.024 25.1144C142.434 24.8399 142.88 24.4141 143.36 23.837C143.453 23.6336 143.584 23.3889 143.754 23.1027C143.944 22.8159 144.04 22.6725 144.04 22.6725C144.075 22.5512 144.141 22.4288 144.237 22.3054C144.237 22.3054 144.275 22.2441 144.351 22.1213C144.426 21.9986 144.503 21.8959 144.58 21.8132C144.694 21.6491 144.791 21.5556 144.87 21.5328C144.97 21.5094 145.019 21.4976 145.019 21.4976C145.034 21.337 145.077 21.1354 145.148 20.8928C145.22 20.6501 145.292 20.4375 145.366 20.2548C145.459 20.0514 145.525 19.929 145.563 19.8877C145.641 19.8249 145.743 19.5812 145.868 19.1566C145.993 18.712 146.116 18.2374 146.238 17.7328C146.36 17.2082 146.416 16.786 146.404 16.4662C146.501 16.3628 146.568 16.2804 146.606 16.219C146.663 16.137 146.692 16.096 146.692 16.096C146.73 16.0546 146.768 16.0032 146.806 15.9419C146.844 15.8605 146.849 15.7203 146.822 15.5211C146.807 15.1013 146.818 14.8308 146.853 14.7095C146.889 14.5882 146.907 14.5275 146.907 14.5275C146.986 14.4847 147.035 14.453 147.054 14.4323C147.072 14.3916 147.061 14.362 147.021 14.3434C146.877 14.2484 146.863 14.1388 146.979 14.0147C147.037 13.9526 147.032 13.8027 146.963 13.5649C146.915 13.3265 146.835 13.0491 146.724 12.7328C146.613 12.4165 146.493 12.1205 146.363 11.8448C146.253 11.5685 146.166 11.3614 146.101 11.2236C145.914 11.01 145.729 10.8664 145.546 10.7927C145.362 10.6991 145.072 10.6992 144.675 10.7931C144.39 10.643 143.964 10.7579 143.397 11.1379C142.829 11.498 142.278 12.0476 141.743 12.7867C141.672 13.0493 141.59 13.2623 141.495 13.4257C141.4 13.5691 141.314 13.6722 141.236 13.7349C141.199 13.8163 141.132 13.9087 141.035 14.0121C140.958 14.0948 140.861 14.1783 140.744 14.2624C140.61 14.4272 140.486 14.6016 140.372 14.7857C140.258 14.9698 140.164 15.1232 140.088 15.2459C139.899 15.5527 139.683 15.9705 139.441 16.4993C139.2 17.028 138.96 17.6067 138.721 18.2354C138.483 18.8641 138.255 19.4925 138.037 20.1205C137.819 20.7485 137.629 21.3255 137.467 21.8514C137.324 22.3567 137.218 22.7506 137.148 23.0333C137.028 23.5978 136.992 24.0093 137.041 24.2678C137.11 24.5255 137.27 24.8201 137.522 25.1515C137.709 25.3451 137.934 25.4873 138.197 25.5782C138.461 25.6691 138.673 25.7217 138.833 25.7361ZM161.966 17.7839C161.849 17.8681 161.603 17.9767 161.227 18.1099C160.871 18.2224 160.255 18.344 159.379 18.4746C159.12 18.5037 158.751 18.5366 158.272 18.5733C157.793 18.6101 157.274 18.6482 156.715 18.6878C156.176 18.7266 155.676 18.754 155.217 18.7701C154.776 18.7655 154.465 18.7463 154.284 18.7126C154.284 18.7126 154.236 18.7643 154.139 18.8677C154.063 18.9705 154.028 19.1018 154.033 19.2617C153.902 19.5064 153.744 19.8721 153.561 20.3588C153.377 20.8255 153.175 21.3429 152.955 21.9109C152.755 22.4783 152.564 23.0453 152.384 23.6119C152.203 24.1585 152.05 24.6442 151.924 25.0688C151.819 25.4728 151.768 25.7547 151.774 25.9146C151.611 26.4006 151.515 26.8142 151.487 27.1554C151.459 27.4965 151.396 27.6989 151.298 27.7623C151.249 28.0642 151.064 28.2208 150.744 28.2319C150.444 28.2424 150.211 28.1605 150.045 27.9862C149.598 27.7817 149.288 27.5123 149.116 27.1781C148.944 26.8239 148.92 26.4245 149.045 25.9799C149.095 25.7179 149.182 25.3347 149.305 24.8301C149.446 24.3048 149.596 23.7293 149.755 23.1033C149.933 22.4767 150.112 21.8701 150.291 21.2835C150.49 20.6762 150.683 20.1792 150.87 19.7924C151.076 19.405 151.204 19.0603 151.254 18.7584C151.303 18.4365 151.372 18.1439 151.463 17.8805C151.436 17.6614 151.431 17.5214 151.449 17.4608C151.466 17.3801 151.541 17.2474 151.675 17.0626C151.772 16.9792 151.887 16.8351 152.02 16.6303C152.172 16.4049 152.341 16.0688 152.525 15.6221C152.578 15.4201 152.659 15.1471 152.767 14.8032C152.894 14.4385 153.011 14.0742 153.119 13.7102C153.225 13.3263 153.324 13.0026 153.415 12.7393C153.506 12.476 153.551 12.3343 153.55 12.3143C153.588 12.233 153.642 12.081 153.715 11.8583C153.786 11.6156 153.839 11.4237 153.875 11.2824C153.945 10.9997 153.997 10.7678 154.03 10.5865C154.084 10.4045 154.071 10.3149 153.991 10.3177C153.832 10.3633 153.514 10.4044 153.035 10.4412C152.796 10.4895 152.617 10.5258 152.498 10.5499C152.398 10.5534 152.309 10.5666 152.229 10.5894C152.03 10.6163 151.85 10.6026 151.688 10.5482C151.526 10.4939 151.441 10.3767 151.435 10.1968C151.464 9.87563 151.562 9.54199 151.73 9.19592C151.918 8.84914 152.162 8.66053 152.461 8.63007C152.6 8.58521 152.748 8.54999 152.908 8.52442C153.086 8.47816 153.324 8.40982 153.621 8.3194C153.998 8.22619 154.327 8.19469 154.608 8.22489C154.909 8.23441 155.12 8.25706 155.241 8.29285C155.339 8.2294 155.417 8.16664 155.475 8.10458C155.552 8.02184 155.599 7.94014 155.616 7.85949C155.703 7.49622 155.874 7.22011 156.128 7.03114C156.38 6.82219 156.647 6.71283 156.927 6.70305C157.226 6.6726 157.468 6.74417 157.654 6.91778C157.84 7.0714 157.899 7.33949 157.833 7.72205C157.855 7.78132 157.876 7.83059 157.898 7.86987C157.939 7.90845 158.089 7.90321 158.348 7.85416C158.625 7.78443 159.102 7.66774 159.776 7.50409C160.135 7.45155 160.583 7.39587 161.121 7.33705C161.68 7.27753 162.12 7.29216 162.444 7.38093C162.781 7.3091 163.08 7.27864 163.341 7.28955C163.621 7.27978 163.809 7.23318 163.906 7.14973C164.329 7.21503 164.631 7.26452 164.812 7.29822C165.013 7.31122 165.175 7.3656 165.298 7.46135C165.381 7.53851 165.414 7.61742 165.396 7.69807C165.379 7.75873 165.37 7.78906 165.37 7.78906C165.288 7.75188 165.278 7.75222 165.34 7.79011C165.4 7.808 165.482 7.85518 165.585 7.93164C165.727 7.98672 165.801 8.11419 165.808 8.31407C165.834 8.49326 165.831 8.6835 165.798 8.88477C165.784 9.06536 165.769 9.18598 165.751 9.24665C165.737 9.42724 165.641 9.54066 165.462 9.58691C165.283 9.61319 164.833 9.62889 164.113 9.63403C163.25 9.54412 162.449 9.53206 161.711 9.59786C160.992 9.64298 160.085 9.76468 158.992 9.96297C158.553 9.99832 158.175 10.0715 157.859 10.1826C157.562 10.2731 157.413 10.3183 157.413 10.3183C157.333 10.3211 157.198 10.4659 157.008 10.7527C156.817 11.0195 156.641 11.4159 156.479 11.9419C156.404 12.0846 156.274 12.3793 156.09 12.826C155.925 13.272 155.752 13.7583 155.57 14.285C155.388 14.7917 155.224 15.2477 155.078 15.653C154.931 16.0384 154.839 16.2517 154.8 16.2931C155.083 16.3633 155.514 16.3883 156.093 16.368C156.693 16.3471 157.352 16.3041 158.07 16.239C158.788 16.1539 159.465 16.0702 160.103 15.9879C160.4 15.9174 160.708 15.8567 161.027 15.8055C161.345 15.7544 161.565 15.7367 161.685 15.7525C161.926 15.7641 162.111 15.9177 162.242 16.2134C162.371 16.489 162.422 16.7874 162.393 17.1086C162.364 17.4098 162.221 17.6349 161.966 17.7839ZM164.785 26.6609L164.976 25.2434C165.085 24.3391 165.195 23.4947 165.308 22.7103C165.421 21.9259 165.529 21.2917 165.632 20.8078C165.755 20.3233 165.836 20.0803 165.876 20.0789C165.955 20.0361 165.992 19.9547 165.988 19.8348C165.983 19.6949 165.987 19.5247 166 19.3241L166.034 18.5724L165.586 18.6481C165.345 18.6165 165.203 18.5714 165.161 18.5129C165.119 18.4543 165.093 18.2751 165.083 17.9753C165.096 17.7747 165.118 17.5538 165.149 17.3125C165.181 17.0713 165.286 16.9375 165.466 16.9113C165.782 16.8002 166.105 16.6088 166.436 16.337C166.786 16.0447 166.948 15.7989 166.921 15.5997C166.935 15.4391 166.997 15.2068 167.107 14.9028C167.236 14.5981 167.403 14.232 167.608 13.8046C167.813 13.3572 168.036 12.8791 168.279 12.3703C168.35 12.1077 168.411 11.8454 168.461 11.5835C168.532 11.3008 168.564 11.0896 168.559 10.9497C168.594 10.7884 168.638 10.6067 168.69 10.4048C168.743 10.2028 168.769 10.0618 168.766 9.98187C168.878 9.75782 168.894 9.63719 168.813 9.62C168.732 9.58281 168.542 9.58944 168.244 9.63989C168.244 9.63989 168.154 9.66302 167.976 9.70927C167.797 9.73554 167.597 9.74252 167.376 9.73021C167.059 9.82133 166.836 9.74906 166.708 9.51339C166.58 9.27773 166.473 9.08134 166.387 8.92423C166.201 8.75062 166.115 8.56353 166.128 8.36295C166.161 8.16168 166.267 8.06789 166.448 8.0816C166.549 8.0981 166.628 8.08531 166.687 8.04324C166.765 7.98049 166.842 7.90774 166.919 7.82499C166.997 7.74225 167.183 7.62569 167.478 7.4753C167.772 7.30493 168.138 7.20207 168.577 7.16673C168.777 7.13976 169.065 7.07967 169.442 6.98646C169.839 6.89255 170.205 6.78969 170.542 6.67788C170.878 6.56608 171.065 6.48949 171.104 6.44812C171.1 6.34818 171.149 6.29647 171.249 6.29298C171.368 6.28879 171.468 6.2853 171.548 6.28251C171.628 6.25973 171.777 6.2345 171.996 6.20684C172.234 6.15849 172.384 6.14326 172.445 6.16115C172.602 6.07562 172.949 6.00344 173.488 5.94462C174.025 5.86581 174.844 5.8172 175.944 5.7988C176.265 5.80762 176.535 5.81818 176.756 5.83049C176.976 5.82282 177.084 5.779 177.081 5.69905C177.081 5.69905 177.212 5.7145 177.473 5.7454C177.734 5.75632 178.026 5.80616 178.349 5.89493C178.829 5.89817 179.231 5.94417 179.555 6.03294C179.897 6.10103 180.164 6.29183 180.355 6.60536C180.545 6.89889 180.632 7.38615 180.616 8.06713L180.52 8.7609L179.701 8.51933C179.541 8.50493 179.28 8.48402 178.919 8.45661C178.557 8.40921 178.165 8.37285 177.744 8.34753C177.323 8.32221 176.922 8.30619 176.542 8.29947C176.161 8.29274 175.882 8.31251 175.703 8.35876C175.503 8.36574 175.294 8.39306 175.076 8.44071C174.857 8.46838 174.637 8.47606 174.416 8.46375C174.139 8.55347 173.871 8.60287 173.611 8.61194C173.371 8.62032 173.211 8.61591 173.13 8.59871C172.933 8.68564 172.755 8.7319 172.595 8.73749C172.455 8.74237 172.327 8.79688 172.21 8.901C172.21 8.901 172.151 8.93308 172.033 8.99723C171.936 9.06068 171.847 9.09381 171.767 9.0966C171.686 9.0794 171.648 9.14076 171.653 9.28068C171.658 9.42059 171.646 9.64116 171.616 9.94237C171.646 10.2215 171.643 10.4217 171.607 10.5431C171.571 10.6444 171.497 10.8171 171.385 11.0611C171.273 11.2852 171.098 11.7315 170.861 12.4002C170.753 12.7442 170.624 13.0489 170.473 13.3143C170.322 13.5797 170.231 13.8231 170.198 14.0443C170 14.6517 169.806 15.1187 169.617 15.4455C169.664 15.644 169.698 15.7529 169.718 15.7722C169.758 15.7708 169.846 15.7077 169.982 15.5828C170.144 15.6372 170.274 15.6327 170.372 15.5692C170.49 15.5051 170.588 15.4616 170.667 15.4388C170.747 15.436 170.827 15.4332 170.907 15.4305C171.007 15.427 171.128 15.4428 171.269 15.4779C171.246 15.3986 171.325 15.3558 171.505 15.3496C171.684 15.3233 171.883 15.2963 172.102 15.2686C172.319 15.161 172.586 15.0817 172.904 15.0305C173.242 14.9587 173.48 14.8803 173.617 14.7955C173.833 14.6879 173.981 14.6327 174.061 14.6299C174.161 14.6264 174.343 14.6801 174.607 14.7909C174.753 14.9659 174.862 15.2123 174.933 15.53C175.004 15.8477 175.035 16.1568 175.026 16.4574C175.015 16.7379 174.962 16.9199 174.865 17.0033C174.865 17.0033 174.766 17.0468 174.569 17.1337C174.371 17.2006 174.164 17.2779 173.947 17.3656C173.725 17.3333 173.515 17.3406 173.317 17.3875C173.119 17.4345 172.98 17.4794 172.901 17.5221C172.491 17.7966 171.804 17.9107 170.842 17.8642C170.706 17.969 170.538 18.0249 170.338 18.0319C170.158 18.0382 170.019 18.0831 169.922 18.1665C169.862 18.1686 169.743 18.1928 169.564 18.239C169.405 18.2646 169.285 18.2688 169.205 18.2516C169.125 18.2544 169.077 18.3161 169.061 18.4367C169.045 18.5374 169.038 18.6276 169.04 18.7076C169.043 18.7876 169.016 18.8685 168.959 18.9506C168.902 19.0326 168.873 19.0737 168.873 19.0737C168.757 19.1978 168.692 19.3301 168.677 19.4708C168.677 19.4708 168.671 19.591 168.659 19.8316C168.668 20.0714 168.627 20.333 168.537 20.6163C168.395 21.1416 168.255 21.7069 168.116 22.3121C167.996 22.8966 167.904 23.4101 167.839 23.8527C167.775 24.2952 167.764 24.5557 167.807 24.6343C167.889 24.7114 168.031 24.7465 168.23 24.7395C168.45 24.7119 168.61 24.7063 168.71 24.7228C168.807 24.6393 168.898 24.6662 168.983 24.8033C169.088 24.9397 169.154 25.1175 169.182 25.3367C169.165 25.4174 169.011 25.6128 168.722 25.9231C168.453 26.2327 168.213 26.5312 168.003 26.8188C167.765 27.4474 167.498 27.847 167.204 28.0174C166.93 28.187 166.587 28.099 166.174 27.7531L164.785 26.6609ZM182.386 27.2771C181.765 27.2587 181.137 27.0505 180.503 26.6524C179.869 26.2743 179.287 25.9144 178.754 25.5728C178.403 25.2448 178.13 24.8941 177.937 24.5207C177.743 24.1272 177.575 23.6127 177.433 22.9773C177.34 22.6003 177.322 22.1006 177.381 21.4782C177.439 20.8558 177.547 20.2317 177.705 19.6057C177.863 18.9599 178.015 18.4542 178.163 18.0889C178.383 17.5208 178.662 16.9107 178.999 16.2585C179.356 15.5857 179.704 14.9532 180.044 14.3609C180.403 13.748 180.686 13.2579 180.893 12.8904C181.028 12.7456 181.086 12.6736 181.066 12.6743C181.065 12.6543 181.064 12.6443 181.064 12.6443C181.061 12.5443 181.152 12.291 181.338 11.8843C181.543 11.4568 181.72 11.0804 181.869 10.755C182.158 10.4248 182.318 10.159 182.351 9.95772C182.384 9.75645 182.349 9.59759 182.245 9.48115C182.202 9.4026 182.276 9.22991 182.467 8.96309C182.678 8.69557 182.967 8.39528 183.336 8.06221C183.704 7.70915 184.113 7.39468 184.564 7.11878C185.03 6.72226 185.483 6.50633 185.922 6.47099C186.38 6.41496 186.653 6.49548 186.741 6.71256C186.743 6.77252 186.854 6.78867 187.073 6.761C187.311 6.71265 187.579 6.65326 187.877 6.58282C188.194 6.49171 188.472 6.42197 188.71 6.37362C188.806 6.2502 189.033 6.15223 189.39 6.0797C189.767 5.98649 190.205 5.90118 190.702 5.82376C190.963 5.83468 191.253 5.83455 191.573 5.82338C191.892 5.79223 192.171 5.76247 192.41 5.7341C192.669 5.70504 192.799 5.69051 192.799 5.69051C192.937 5.64565 193.14 5.72861 193.408 5.93941C193.695 6.12951 193.924 6.40166 194.097 6.75586C194.249 7.11076 194.14 7.42476 193.77 7.69786C193.399 7.97096 192.806 8.17179 191.99 8.30035C191.393 8.40124 190.925 8.4876 190.588 8.55943C190.269 8.61057 189.922 8.68275 189.545 8.77596C189.187 8.84849 188.661 8.97692 187.967 9.16125C187.471 9.27864 187.054 9.37325 186.716 9.44508C186.379 9.51691 186.083 9.64731 185.829 9.83627C185.596 10.0245 185.337 10.3538 185.053 10.824C184.917 10.9288 184.746 11.1949 184.541 11.6223C184.336 12.0497 184.131 12.4772 183.925 12.9046C183.393 13.7037 182.993 14.298 182.727 14.6875C182.48 15.0564 182.398 15.2894 182.481 15.3865C182.481 15.3865 182.622 15.4116 182.904 15.4618C183.186 15.512 183.367 15.5357 183.447 15.5329C183.643 15.426 183.881 15.3476 184.159 15.2979C184.457 15.2474 184.696 15.1991 184.874 15.1528C186.102 14.7898 187.004 14.5281 187.579 14.368C188.173 14.1871 188.589 14.0626 188.826 13.9942C189.084 13.9252 189.313 13.8772 189.512 13.8502C189.784 13.6206 190.064 13.6308 190.353 13.8809C190.661 14.1102 190.881 14.3927 191.013 14.7283C191.167 15.1232 191.178 15.433 191.046 15.6578C190.913 15.8825 190.61 16.0732 190.135 16.2299C189.68 16.3859 189.027 16.5788 188.174 16.8087C187.321 17.0186 186.251 17.3261 184.964 17.7313C183.876 18.0895 182.993 18.3104 182.316 18.3941C181.638 18.4778 181.313 18.3191 181.339 17.9179C181.196 17.8429 181.039 17.9284 180.867 18.1745C180.715 18.4 180.576 18.715 180.45 19.1197C180.324 19.5243 180.209 19.9586 180.105 20.4225C180.021 20.8857 179.976 21.3175 179.97 21.718C179.964 22.1184 180.005 22.4272 180.093 22.6443C180.269 23.0984 180.533 23.4894 180.884 23.8174C181.255 24.1246 181.784 24.3663 182.471 24.5425C182.871 24.5485 183.262 24.5648 183.643 24.5916C184.024 24.6183 184.451 24.5233 184.924 24.3067C186.096 24.0656 186.908 23.8271 187.36 23.5912C187.812 23.3553 188.087 23.1956 188.184 23.1122C188.341 23.0266 188.438 22.9432 188.476 22.8619C188.533 22.7798 188.611 22.737 188.711 22.7336C188.655 22.8356 188.675 22.8349 188.771 22.7315C188.868 22.628 189.023 22.4825 189.236 22.295C189.643 21.9205 190.055 21.686 190.472 21.5914C190.889 21.4968 191.239 21.4846 191.522 21.5547C191.804 21.6049 191.956 21.6797 191.98 21.7789C192.107 21.9746 192.058 22.2965 191.834 22.7446C191.608 23.1727 191.254 23.6354 190.771 24.1325C190.308 24.629 189.754 25.0786 189.107 25.4814C188.068 26.0781 186.932 26.508 185.7 26.7711C184.469 27.0542 183.365 27.2229 182.386 27.2771ZM194.056 26.9296C193.976 26.9324 193.863 26.8263 193.715 26.6113C193.587 26.3956 193.522 26.2478 193.519 26.1678C193.516 26.0679 193.494 26.0186 193.454 26.02C193.294 26.0256 193.199 25.8788 193.169 25.5797C193.138 25.2806 193.2 25.0583 193.356 24.9128C193.395 24.9114 193.411 24.7808 193.402 24.5209C193.398 24.401 193.404 24.3007 193.421 24.2201C193.459 24.1387 193.466 24.0584 193.443 23.9792C193.441 23.9192 193.458 23.8286 193.494 23.7072C193.549 23.5852 193.576 23.4842 193.573 23.4043C193.57 23.3243 193.606 23.203 193.68 23.0403C193.775 22.8769 193.849 22.7242 193.905 22.5822C193.961 22.4802 194.025 22.3078 194.097 22.0652C194.168 21.8226 194.24 21.5999 194.313 21.3972C194.312 21.3572 194.386 21.1846 194.535 20.8792C194.705 20.5731 194.833 20.2384 194.921 19.8751C194.99 19.5725 195.049 19.2602 195.098 18.9383C195.146 18.5965 195.17 18.4055 195.168 18.3655C195.164 18.2456 195.16 18.1457 195.158 18.0657C195.155 17.9858 195.153 17.9458 195.153 17.9458C195.313 17.9402 195.392 17.9074 195.39 17.8475C195.467 17.7647 195.506 17.7234 195.506 17.7234C195.525 17.7027 195.535 17.6923 195.535 17.6923C195.535 17.6923 195.543 17.642 195.56 17.5414C195.575 17.4208 195.652 17.318 195.789 17.2332C195.961 17.007 196.056 16.8536 196.073 16.773C196.11 16.6916 196.128 16.621 196.126 16.561C196.126 16.561 196.243 16.2067 196.479 15.4981C196.714 14.7694 197.097 13.7254 197.63 12.366C197.951 11.8144 198.184 11.316 198.328 10.8707C198.473 10.4254 198.593 10.131 198.688 9.98761C198.835 9.60226 198.904 9.28965 198.895 9.0498C198.895 9.0498 198.885 9.05015 198.865 9.05085C198.865 9.05085 198.845 9.05154 198.805 9.05294C198.629 9.15916 198.447 9.09548 198.258 8.86191C198.07 8.62834 197.853 8.4158 197.606 8.2243C197.46 8.06929 197.424 7.90044 197.498 7.71775C197.571 7.51508 197.607 7.40375 197.606 7.38377C197.604 7.3238 197.76 7.20829 198.075 7.03721C198.388 6.84616 198.742 6.6637 199.136 6.48984C199.53 6.29599 199.845 6.16489 200.083 6.09655C200.319 5.96825 200.636 5.89712 201.036 5.88316C201.456 5.8685 201.877 5.88382 202.298 5.92913C202.72 5.97443 203.062 6.02253 203.324 6.07342C203.989 6.1903 204.679 6.46639 205.394 6.90168C206.11 7.33697 206.639 7.88882 206.983 8.55724C207.153 8.83148 207.286 9.20707 207.383 9.68398C207.499 10.1602 207.567 10.6681 207.586 11.2078C207.624 11.7268 207.59 12.1883 207.484 12.5922C207.357 12.9769 207.133 13.435 206.812 13.9665C206.489 14.4781 206.137 14.9907 205.755 15.5043C205.372 15.998 205.016 16.4107 204.687 16.7423C204.359 17.074 204.124 17.2423 203.984 17.2472C203.845 17.2521 203.765 17.2549 203.745 17.2556C203.725 17.2563 203.715 17.2566 203.715 17.2566C203.715 17.2766 203.628 17.3497 203.452 17.4759C203.296 17.5814 203.1 17.7083 202.865 17.8566C202.629 17.9849 202.393 18.1032 202.157 18.2115C201.921 18.3199 201.743 18.3861 201.624 18.4103C201.484 18.4152 201.374 18.429 201.295 18.4518C201.216 18.4746 201.148 18.547 201.092 18.669C200.979 18.873 200.915 19.0454 200.9 19.186C200.904 19.3059 200.932 19.5351 200.984 19.8735C201.093 20.1099 201.243 20.4048 201.435 20.7583C201.627 21.0918 201.808 21.3957 201.978 21.6699C202.167 21.9235 202.281 22.0496 202.321 22.0482C202.401 22.0454 202.512 22.0815 202.655 22.1566C202.798 22.2316 202.942 22.3567 203.088 22.5317C203.497 22.7776 203.836 23.0159 204.104 23.2467C204.371 23.4575 204.493 23.4932 204.468 23.354C204.466 23.2941 204.553 23.221 204.73 23.1347C204.907 23.0485 205.106 22.9916 205.325 22.9639C205.665 22.952 205.907 23.0136 206.052 23.1486C206.216 23.263 206.308 23.3198 206.328 23.3191C206.328 23.3191 206.33 23.3791 206.334 23.499C206.358 23.6182 206.383 23.7574 206.409 23.9166C206.417 24.1565 206.327 24.4398 206.138 24.7666C205.949 25.0934 205.719 25.3816 205.448 25.6312C205.197 25.9001 204.942 26.0491 204.683 26.0782C204.006 26.1819 203.29 26.0268 202.536 25.6128C201.781 25.1989 201.059 24.5938 200.371 23.7973C199.682 22.9808 199.099 22.0506 198.622 21.0066C198.466 20.5518 198.385 20.2144 198.377 19.9946C198.389 19.754 198.245 19.659 197.947 19.7094C197.707 19.7178 197.578 19.7623 197.561 19.8429C197.543 19.9036 197.461 20.1366 197.315 20.5419C197.301 20.7025 197.286 20.8531 197.271 20.9938C197.275 21.1137 197.227 21.1754 197.127 21.1789C197.127 21.1789 197.082 21.3006 196.99 21.5439C196.898 21.7673 196.787 22.0213 196.657 22.306C196.626 22.5672 196.564 22.8095 196.472 23.0329C196.399 23.2356 196.364 23.3769 196.367 23.4568C196.374 23.6767 196.369 23.827 196.352 23.9076C196.335 23.9882 196.276 24.0303 196.177 24.0338C196.199 24.1131 196.192 24.1934 196.155 24.2747C196.118 24.3561 196.101 24.4567 196.105 24.5766C196.106 24.5966 196.099 24.6869 196.085 24.8475C196.09 24.9874 196.076 25.158 196.043 25.3593C195.97 25.562 195.885 25.705 195.788 25.7885C195.711 25.8912 195.685 25.9922 195.708 26.0914C195.712 26.1914 195.606 26.3151 195.391 26.4627C195.196 26.6096 194.96 26.7279 194.683 26.8176C194.426 26.9266 194.218 26.964 194.056 26.9296ZM199.062 16.3985C199.218 16.8533 199.617 16.8193 200.259 16.2966C200.93 16.033 201.393 15.8168 201.647 15.6478C201.921 15.4581 202.155 15.2898 202.35 15.1429C202.526 15.0367 202.672 14.9216 202.788 14.7974C202.903 14.6533 202.961 14.5813 202.961 14.5813C203.1 14.5564 203.276 14.4402 203.489 14.2326C203.722 14.0244 203.953 13.7562 204.181 13.428C204.41 13.0998 204.598 12.753 204.745 12.3877C204.914 12.0616 205.006 11.8282 205.021 11.6876C205.056 11.5463 205.061 11.406 205.036 11.2668C205.012 11.1276 204.994 10.9181 204.984 10.6383C204.872 10.282 204.762 9.99563 204.654 9.77926C204.566 9.5422 204.419 9.3472 204.214 9.19428C204.027 9.02067 203.712 8.86159 203.266 8.71705C202.961 8.56762 202.598 8.49023 202.178 8.4849C201.757 8.47957 201.408 8.52177 201.131 8.61149C200.874 8.68053 200.797 8.79326 200.903 8.94967C200.995 9.28667 201.106 9.61298 201.237 9.9286C201.368 10.2242 201.348 10.5151 201.178 10.8012C201.184 10.9811 201.058 11.3857 200.8 12.0151C200.542 12.6445 200.295 13.3135 200.06 14.0222C199.747 14.8136 199.497 15.3927 199.31 15.7594C199.142 16.1255 199.06 16.3385 199.062 16.3985ZM216.776 27.457C216.368 27.2511 216.089 27.0007 215.939 26.7057C215.788 26.4108 215.717 26.0831 215.724 25.7226C215.752 25.3614 215.809 24.9892 215.896 24.606C216.033 23.9608 216.185 23.4252 216.35 22.9991C216.534 22.5524 216.708 22.0961 216.872 21.6301C217.055 21.1434 217.204 20.5278 217.318 19.7834C217.612 19.0327 217.868 18.3233 218.084 17.6554C218.321 16.9867 218.502 16.44 218.627 16.0154C218.753 15.5908 218.815 15.3785 218.815 15.3785C218.833 15.2978 218.905 15.0851 219.033 14.7405C219.181 14.3951 219.357 13.9787 219.56 13.4913C219.782 12.9832 219.995 12.4755 220.197 11.9682C220.503 10.9969 220.795 10.1762 221.072 9.50613C221.348 8.81607 221.626 8.19597 221.907 7.64583C222.208 7.095 222.529 6.54346 222.87 5.99122C223.095 5.5631 223.426 5.30139 223.863 5.20608C224.3 5.11078 224.722 5.14609 225.128 5.31202C225.533 5.45796 225.803 5.72872 225.937 6.12428C226.044 6.32067 226.132 6.54774 226.201 6.80549C226.29 7.06254 226.373 7.44986 226.451 7.96745C226.549 8.46435 226.624 9.19216 226.678 10.1509C226.757 11.2888 226.814 12.3374 226.848 13.2969C226.9 14.2356 226.971 15.1037 227.059 15.9011C227.166 16.6978 227.322 17.4228 227.525 18.0761C227.597 18.4338 227.673 18.8715 227.751 19.3891C227.828 19.8867 227.906 20.3843 227.983 20.8819C228.08 21.3788 228.175 21.7957 228.267 22.1327C228.358 22.4497 228.443 22.6068 228.523 22.604C228.623 22.6006 228.73 22.5168 228.845 22.3527C228.978 22.1679 229.145 21.7918 229.346 21.2245C229.546 20.6572 229.796 19.7879 230.095 18.6168C230.395 17.4456 230.75 15.8722 231.161 13.8967C231.249 13.5534 231.36 12.9992 231.493 12.2341C231.647 11.4683 231.75 10.6942 231.802 9.91188C231.925 9.4073 232.046 8.85275 232.165 8.24823C232.284 7.64371 232.385 7.10984 232.469 6.64663C232.573 6.18272 232.624 5.92079 232.622 5.86082C232.617 5.72091 232.612 5.60098 232.609 5.50104C232.625 5.40041 232.622 5.30047 232.599 5.20123C232.698 5.19774 232.784 5.06468 232.855 4.80204C232.925 4.51942 232.957 4.27817 232.95 4.07829C232.938 3.7385 232.968 3.46727 233.041 3.2646C233.133 3.04124 233.228 2.87785 233.324 2.77442C233.53 2.36699 233.803 2.15734 234.143 2.14547C234.502 2.11292 234.835 2.20134 235.143 2.41074C235.449 2.60014 235.638 2.84371 235.709 3.14144C235.756 3.3599 235.714 3.86169 235.581 4.6468C235.468 5.41123 235.284 6.44828 235.029 7.75795C235.037 7.97782 234.99 8.33969 234.887 8.84358C234.785 9.34746 234.673 9.88168 234.553 10.4462C234.452 11.0101 234.379 11.4929 234.333 11.8948C234.271 12.4172 234.199 12.9101 234.115 13.3733C234.03 13.8165 233.937 14.0299 233.837 14.0134C233.396 16.2902 232.914 18.2382 232.39 19.8574C231.885 21.456 231.431 22.7627 231.026 23.7774C230.585 24.8935 229.989 25.6147 229.24 25.9411C228.512 26.2867 227.814 26.0609 227.145 25.2638C226.747 24.7573 226.41 24.2588 226.133 23.7682C225.855 23.2776 225.625 22.6953 225.441 22.0213C225.258 21.3473 225.088 20.4927 224.931 19.4575C224.782 18.6222 224.644 17.8065 224.516 17.0105C224.407 16.1938 224.318 15.3664 224.249 14.5283C224.179 13.6702 224.137 12.7611 224.124 11.801C224.104 10.661 224.031 9.99316 223.904 9.79747C223.797 9.60109 223.651 9.71625 223.465 10.143C223.28 10.5697 223.07 11.1474 222.836 11.876C222.71 12.2807 222.556 12.7463 222.374 13.273C222.212 13.779 222.039 14.2853 221.857 14.792C221.674 15.2986 221.519 15.7343 221.392 16.099C221.265 16.4636 221.183 16.6966 221.146 16.798C221.035 17.042 220.906 17.3667 220.76 17.772C220.613 18.1574 220.498 18.5717 220.413 19.0149C219.759 20.9189 219.276 22.5567 218.964 23.9285C218.671 25.2795 218.452 26.1777 218.307 26.623C218.127 27.1897 217.949 27.5361 217.773 27.6623C217.618 27.7878 217.285 27.7194 216.776 27.457ZM238.677 24.4108C237.624 24.0673 236.789 23.3461 236.17 22.247C235.55 21.1279 235.344 19.8043 235.551 18.2762C235.571 17.6951 235.642 17.1723 235.766 16.7077C235.91 16.2424 236.014 15.7785 236.078 15.316C236.076 15.276 236.094 15.2153 236.132 15.134C236.168 15.0326 236.175 14.9423 236.152 14.8631C236.188 14.7418 236.27 14.5188 236.399 14.1941C236.527 13.8494 236.656 13.5247 236.785 13.22C236.914 12.8953 236.998 12.7123 237.036 12.6709C237.135 12.6274 237.183 12.5757 237.181 12.5158C237.178 12.4358 237.177 12.3958 237.177 12.3958C237.171 12.2359 237.271 11.9423 237.476 11.5149C237.681 11.0874 237.945 10.6179 238.267 10.1064C238.609 9.57413 238.951 9.06187 239.294 8.5696C239.637 8.07733 239.943 7.6664 240.212 7.33682C240.481 7.00725 240.655 6.84106 240.735 6.83827C240.795 6.83618 240.843 6.79446 240.881 6.71311C240.918 6.63176 240.956 6.5804 240.995 6.55901C241.052 6.47697 241.228 6.35076 241.522 6.18039C241.837 6.00932 242.2 5.82651 242.614 5.63196C243.047 5.41672 243.47 5.22183 243.884 5.04727C244.298 4.87271 244.654 4.75021 244.952 4.67978C245.82 4.32926 246.61 4.30169 247.321 4.59706C248.031 4.89244 248.612 5.47253 249.062 6.33734C249.513 7.20214 249.772 8.31378 249.839 9.67226C249.775 10.1148 249.739 10.5363 249.733 10.9367C249.747 11.3165 249.726 11.5974 249.673 11.7794C249.668 12.2198 249.616 12.7219 249.515 13.2858C249.415 13.8496 249.312 14.3435 249.207 14.7674C249.101 15.1714 249.018 15.3844 248.959 15.4065C248.962 15.4864 248.944 15.5671 248.907 15.6484C248.869 15.7098 248.852 15.7704 248.854 15.8304C248.877 15.9296 248.815 16.162 248.668 16.5273C248.52 16.8927 248.345 17.2991 248.14 17.7465C247.936 18.1939 247.749 18.5806 247.58 18.9067C247.411 19.2328 247.307 19.3966 247.267 19.3979C247.267 19.3979 247.248 19.4086 247.208 19.43C247.168 19.4314 247.16 19.4717 247.182 19.551C247.204 19.5903 247.137 19.6927 246.983 19.8581C246.829 20.0236 246.654 20.1898 246.46 20.3567C246.285 20.5029 246.148 20.5777 246.048 20.5812C246.048 20.5812 246.028 20.5919 245.989 20.6133C245.969 20.634 245.991 20.6733 246.053 20.7311C246.074 20.7704 245.92 20.9359 245.59 21.2276C245.279 21.4986 244.88 21.8227 244.393 22.2C243.905 22.5572 243.417 22.8945 242.928 23.2117C242.438 23.509 242.044 23.6929 241.746 23.7633C241.689 23.8453 241.631 23.8974 241.571 23.9195C241.512 23.9216 241.432 23.9344 241.333 23.9578C241.198 24.1026 240.952 24.2213 240.595 24.3138C240.258 24.4256 239.91 24.4878 239.551 24.5004C239.191 24.5329 238.9 24.5031 238.677 24.4108ZM241.595 21.157C241.99 21.0031 242.383 20.7993 242.774 20.5454C243.185 20.2709 243.535 19.9885 243.826 19.6982C244.135 19.3873 244.325 19.1004 244.396 18.8378C244.448 18.6159 244.503 18.4539 244.559 18.3518C244.635 18.2291 244.712 18.1364 244.789 18.0736C244.944 17.9081 245.133 17.6013 245.358 17.1532C245.602 16.7044 245.835 16.216 246.057 15.6879C246.279 15.1599 246.461 14.6632 246.605 14.1979C246.768 13.7119 246.856 13.3586 246.868 13.138C246.867 13.0981 246.891 12.9271 246.941 12.6252C246.99 12.3233 247.052 12.101 247.127 11.9583C247.165 11.8769 247.172 11.8066 247.15 11.7474C247.147 11.6674 247.13 11.4579 247.098 11.1188C247.086 10.779 247.075 10.169 247.064 9.28887C247.019 8.57001 246.931 8.04277 246.799 7.70717C246.686 7.35088 246.549 7.13555 246.386 7.06118C246.345 7.0226 246.243 6.98612 246.082 6.95173C245.941 6.91664 245.79 6.90188 245.63 6.90747C245.47 6.89306 245.32 6.91829 245.183 6.98314C245.083 7.00661 244.945 7.06147 244.768 7.1477C244.61 7.21325 244.471 7.24812 244.351 7.2523C244.194 7.33784 244.088 7.44162 244.032 7.56364C243.976 7.66567 243.948 7.74667 243.951 7.80663C243.956 7.96654 243.891 8.11889 243.756 8.26369C243.621 8.3885 243.461 8.40408 243.278 8.31042C242.959 8.34158 242.74 8.38923 242.622 8.45338C242.525 8.51684 242.429 8.65025 242.336 8.85362C242.262 9.0363 242.103 9.35204 241.859 9.80085C241.315 10.2601 240.93 10.7038 240.705 11.1319C240.479 11.5601 240.351 11.8848 240.318 12.106C239.925 12.8802 239.636 13.4807 239.451 13.9074C239.265 14.3141 239.137 14.6788 239.069 15.0014C239 15.324 238.954 15.7158 238.93 16.177C238.762 16.523 238.644 16.8874 238.578 17.2699C238.511 17.6525 238.45 17.9048 238.394 18.0268C238.357 18.1281 238.344 18.3187 238.354 18.5985C238.363 18.8584 238.383 19.1578 238.415 19.4969C238.466 19.8153 238.517 20.1138 238.567 20.3922C238.636 20.6499 238.702 20.8377 238.766 20.9556C238.902 21.4111 239.201 21.6608 239.663 21.7047C240.125 21.7486 240.769 21.5661 241.595 21.157ZM260.39 25.6638C259.871 25.6819 259.392 25.4485 258.955 24.9634C258.538 24.4777 258.317 23.895 258.294 23.2155C258.288 23.0556 258.299 22.805 258.327 22.4638C258.375 22.1219 258.415 21.8104 258.445 21.5292C258.494 21.2272 258.519 21.0763 258.519 21.0763C258.446 21.279 258.279 21.655 258.018 22.2045C257.756 22.7339 257.473 23.2041 257.167 23.615C256.82 24.0074 256.5 24.2987 256.207 24.4891C255.933 24.6787 255.64 24.8891 255.328 25.1201C254.838 25.4174 254.534 25.5781 254.415 25.6023C254.295 25.6265 254.112 25.5428 253.865 25.3513C253.542 25.2625 253.165 25.0756 252.735 24.7904C252.325 24.5045 252.074 24.2031 251.983 23.8861C251.809 23.4919 251.67 22.9365 251.565 22.2197C251.459 21.4829 251.402 20.7044 251.393 19.8843C251.384 19.0441 251.447 18.2614 251.581 17.5363C251.671 17.2329 251.719 16.9011 251.727 16.5406C251.734 16.1801 251.774 15.8985 251.847 15.6959C251.822 15.5366 251.869 15.1748 251.989 14.6102C252.13 14.045 252.326 13.3577 252.578 12.5484C252.83 11.7392 253.11 10.8888 253.419 9.99751C253.728 9.10618 254.039 8.25483 254.351 7.44345C254.683 6.63138 254.988 5.93028 255.268 5.34016C255.567 4.74935 255.814 4.3705 256.009 4.20362C256.258 3.89473 256.522 3.70541 256.799 3.63568C257.097 3.56524 257.358 3.57616 257.581 3.66842C257.804 3.74069 257.917 3.84679 257.922 3.9867C258.007 4.12382 258.061 4.24201 258.085 4.34125C258.108 4.4205 258.161 4.51869 258.245 4.63583C258.312 4.83361 258.329 5.03314 258.296 5.23442C258.283 5.43499 258.203 5.72796 258.057 6.11331C257.929 6.47798 257.718 7.02567 257.424 7.7564C256.899 8.77534 256.428 9.90246 256.011 11.1378C255.613 12.3524 255.276 13.6049 255.001 14.8953C254.725 16.1657 254.528 17.3833 254.408 18.5482C254.309 19.7124 254.295 20.7435 254.366 21.6416C254.375 21.9014 254.403 22.1306 254.45 22.329C254.497 22.5075 254.599 22.574 254.757 22.5284C254.935 22.4622 255.206 22.2026 255.571 21.7496C255.724 21.5441 255.885 21.2883 256.054 20.9822C256.243 20.6555 256.393 20.37 256.505 20.126C256.636 19.8613 256.701 19.7289 256.701 19.7289C256.701 19.7289 256.756 19.5969 256.867 19.3329C256.998 19.0681 257.146 18.7328 257.312 18.3267C257.502 18.0199 257.745 17.5311 258.042 16.8604C258.338 16.1896 258.643 15.4585 258.956 14.6671C259.268 13.8758 259.543 13.1357 259.779 12.4471C260.014 11.7384 260.165 11.2028 260.233 10.8402C260.303 10.5576 260.385 10.3246 260.479 10.1412C260.592 9.93717 260.718 9.83269 260.858 9.82781C261.191 9.63605 261.5 9.58526 261.783 9.67542C262.066 9.7456 262.284 9.97813 262.438 10.373L263.276 11.1542L262.679 12.9762C261.798 15.8287 261.253 18.5693 261.045 21.1982C261.045 21.1982 260.988 21.3002 260.875 21.5043C260.782 21.7077 260.739 21.9093 260.746 22.1092C260.753 22.3091 260.906 22.3938 261.206 22.3633C261.518 22.1523 261.79 21.8926 262.019 21.5845C262.248 21.2563 262.513 20.8467 262.817 20.3559C263.139 19.8443 263.567 19.209 264.101 18.4499C264.35 18.141 264.57 17.8331 264.759 17.5264C264.968 17.1989 265.072 17.0351 265.072 17.0351C265.072 17.0351 265.118 16.9135 265.209 16.6701C265.321 16.4261 265.414 16.2127 265.487 16.03C265.655 15.684 265.797 15.4389 265.912 15.2948C266.046 15.13 266.113 15.0476 266.113 15.0476C266.268 14.9021 266.457 14.5853 266.68 14.0972C266.904 13.6091 267.144 13.0304 267.4 12.361C267.677 11.691 267.934 11.0116 268.17 10.3229C268.405 9.61429 268.603 8.967 268.762 8.38107C268.922 7.79514 269.007 7.36191 269.017 7.08138C269.067 6.21912 269.134 5.55638 269.218 5.09317C269.302 4.62996 269.4 4.30631 269.514 4.12224C269.647 3.91747 269.793 3.8023 269.952 3.77673C270.493 3.77787 270.878 3.92451 271.108 4.21665C271.338 4.48881 271.48 4.83406 271.535 5.2524C271.609 5.65007 271.653 6.04878 271.667 6.44853C271.688 7.04817 271.64 7.70021 271.525 8.40467C271.409 9.10913 271.279 9.66403 271.133 10.0694C271.06 10.272 270.977 10.4851 270.885 10.7084C270.792 10.9318 270.701 11.1851 270.611 11.4684C270.471 11.4733 270.346 11.6078 270.235 11.8718C270.143 12.1151 270.06 12.3182 269.986 12.4809C269.99 12.6008 269.93 12.8831 269.806 13.3277C269.68 13.7523 269.543 14.1173 269.393 14.4227C269.281 14.6268 269.102 14.9532 268.857 15.402C268.632 15.8301 268.378 16.2893 268.095 16.7795C267.812 17.2697 267.557 17.7188 267.331 18.1269C267.126 18.5344 266.975 18.8198 266.881 18.9832C266.728 19.1886 266.575 19.3941 266.422 19.5996C266.289 19.8043 266.187 20.018 266.115 20.2407C265.889 20.6488 265.574 21.0901 265.17 21.5645C264.786 22.0381 264.363 22.5132 263.899 22.9897C263.455 23.4455 263.029 23.8506 262.621 24.205C262.233 24.5588 261.922 24.8198 261.688 24.9881C261.435 25.197 261.17 25.3564 260.894 25.4661C260.638 25.5951 260.47 25.661 260.39 25.6638ZM274.465 18.0579C273.909 18.1774 273.461 17.9629 273.122 17.4144C272.782 16.8459 272.767 15.8359 273.076 14.3842C273.188 14.1401 273.28 13.9068 273.352 13.6841C273.423 13.4415 273.457 13.2502 273.452 13.1103C273.523 12.8476 273.612 12.5443 273.72 12.2004C273.848 11.8357 273.976 11.501 274.106 11.1963C274.234 10.8716 274.327 10.6583 274.383 10.5562C274.463 10.5534 274.541 10.4807 274.616 10.338C274.711 10.1946 274.756 10.0529 274.751 9.91299C274.746 9.75309 274.769 9.57215 274.822 9.37018C274.895 9.16751 274.97 9.0248 275.047 8.94206C275.044 8.84212 275.08 8.73079 275.156 8.60807C275.232 8.48535 275.268 8.38402 275.265 8.30407C275.263 8.22412 275.28 8.15346 275.318 8.0921C275.376 8.03004 275.403 7.95904 275.401 7.87909C275.569 7.553 275.783 7.07526 276.041 6.44587C276.318 5.79579 276.585 5.11607 276.84 4.40673C277.116 3.69669 277.344 3.06834 277.525 2.52169C277.706 1.97504 277.794 1.64175 277.79 1.52182C277.825 1.36052 277.879 1.20852 277.954 1.06581C278.029 0.923106 278.148 0.868949 278.309 0.90334C278.387 0.840585 278.506 0.806416 278.666 0.800832C278.825 0.775259 278.944 0.761077 279.024 0.758285C279.024 0.758285 279.116 0.79512 279.298 0.868789C279.481 0.942459 279.645 1.0568 279.791 1.21182C279.955 1.34615 280.052 1.53289 280.08 1.77205C280.109 2.0112 280.127 2.25071 280.135 2.49056C280.129 2.87103 280.004 3.30565 279.761 3.79443C279.518 4.28322 279.246 4.82302 278.947 5.41383C278.76 5.80058 278.573 6.16734 278.385 6.51411C278.217 6.86019 278.134 7.0732 278.137 7.15315C278.14 7.2331 278.104 7.35442 278.03 7.51712C277.955 7.67981 277.872 7.88283 277.781 8.12618C277.668 8.33024 277.556 8.57428 277.446 8.8583C277.356 9.14162 277.275 9.4046 277.203 9.64725C277.131 9.86991 277.096 10.0112 277.098 10.0712C277.081 10.1518 277.054 10.2328 277.017 10.3142C276.999 10.3948 276.952 10.4765 276.875 10.5593C276.795 10.5621 276.747 10.6238 276.731 10.7444C276.735 10.8443 276.737 10.8943 276.737 10.8943C276.739 10.9743 276.696 11.1659 276.607 11.4692C276.536 11.7518 276.408 12.0965 276.222 12.5032C275.88 13.5758 275.639 14.4347 275.502 15.0799C275.364 15.7051 275.282 16.2383 275.258 16.6794C275.234 17.1605 275.136 17.4942 274.962 17.6804C274.788 17.8465 274.622 17.9724 274.465 18.0579ZM273.038 22.7606C272.624 22.9352 272.277 23.0173 271.996 23.0071C271.717 23.0169 271.402 22.8978 271.053 22.6498C270.64 22.264 270.486 21.8691 270.592 21.4652C270.717 21.0406 271.063 20.6282 271.629 20.2282C272.02 19.9544 272.305 19.8144 272.485 19.8081C272.684 19.7811 272.977 19.841 273.362 19.9876C274.056 20.3836 274.372 20.8429 274.311 21.3653C274.248 21.8678 273.824 22.3329 273.038 22.7606Z" fill="white"/>
</svg>
